<svg xmlns="http://www.w3.org/2000/svg" width="24.1" height="21.652" viewBox="380.701 522.586 24.1 21.652"><path d="M387.688 522.586h.006c.922.006 1.82.19 2.671.545a6.993 6.993 0 0 1 2.384 1.644 6.906 6.906 0 0 1 2.381-1.65 6.906 6.906 0 0 1 2.68-.538c.925 0 1.826.18 2.68.538.852.356 1.612.87 2.261 1.528a6.994 6.994 0 0 1 2.05 4.966c0 1.875-.728 3.64-2.051 4.968l-9.275 9.349a1.022 1.022 0 0 1-1.452 0l-9.276-9.35a7.018 7.018 0 0 1-1.91-3.59 7.018 7.018 0 0 1 .394-4.047 7.018 7.018 0 0 1 2.566-3.154 7.018 7.018 0 0 1 3.89-1.209Zm5.061 4.888c-.36 0-.693-.189-.877-.497a4.446 4.446 0 0 0-.693-.882 4.952 4.952 0 0 0-3.49-1.464 4.984 4.984 0 0 0-4.567 3.096 4.984 4.984 0 0 0 1.076 5.418l8.551 8.619 8.55-8.619a4.964 4.964 0 0 0 1.458-3.526c0-1.33-.517-2.582-1.456-3.524l-.004-.004a4.927 4.927 0 0 0-3.487-1.46 4.927 4.927 0 0 0-3.496 1.47 4.446 4.446 0 0 0-.688.876 1.022 1.022 0 0 1-.877.497Z" fill="#23868b" fill-rule="evenodd" data-name="primary"/></svg>