<svg xmlns="http://www.w3.org/2000/svg" width="59.383" height="19.25" viewBox="1145.983 909.983 59.383 19.25"><g data-name="adyen-vector-logo"><path d="M1203.247 914.37h-8.375v10.479h4.368v-7.852h1.142c.333 0 .6.266.6.6v7.252h4.368v-8.376a2.104 2.104 0 0 0-2.103-2.103" fill="#dfdfe2" fill-rule="evenodd" data-name="Path 3911"/><path d="M1191.027 914.37h-8.376v8.375c0 1.161.943 2.104 2.104 2.104h8.223v-2.618h-5.358a.597.597 0 0 1-.6-.6v-4.634h1.142c.333 0 .6.266.6.6v3.33h2.265a2.104 2.104 0 0 0 2.103-2.103v-2.341c0-1.17-.942-2.113-2.103-2.113" fill="#dfdfe2" fill-rule="evenodd" data-name="Path 3910"/><path d="M1176.55 922.222h-1.141a.597.597 0 0 1-.6-.6v-7.252h-4.368v8.375c0 1.161.942 2.104 2.103 2.104h4.007v1.313h-5.958v3.055h8.223a2.104 2.104 0 0 0 2.103-2.103V914.37h-4.368v7.852Z" fill="#dfdfe2" fill-rule="evenodd" data-name="Path 3909"/><path d="M1164.33 922.222h-1.142a.597.597 0 0 1-.6-.6v-7.252h-2.264a2.104 2.104 0 0 0-2.104 2.103v6.272c0 1.161.943 2.104 2.104 2.104h8.375v-14.847h-4.369v12.22Z" fill="#dfdfe2" fill-rule="evenodd" data-name="Path 3908"/><path d="M1154.375 914.37h-8.223v2.617h5.359c.333 0 .6.267.6.6v4.635h-1.143a.597.597 0 0 1-.6-.6v-3.33h-2.265a2.104 2.104 0 0 0-2.103 2.103v2.34c0 1.162.942 2.104 2.103 2.104h8.376v-8.375a2.108 2.108 0 0 0-2.104-2.094" fill="#dfdfe2" fill-rule="evenodd" data-name="Path 3907"/></g></svg>