<svg xmlns="http://www.w3.org/2000/svg" width="35.05" height="24.017" viewBox="1161.967 393.983 35.05 24.017"><g data-name="Group 2221"><g data-name="Group 2222"><path d="M1188.331 405.507v-6.76l2.894.01 1.49 4.156 1.5-4.166H1197v6.76l-1.793.016v-4.644l-1.692 4.628h-1.636l-1.728-4.644v4.644h-1.82" fill="#016fd0" fill-rule="evenodd" data-name="Path 3901"/><path d="m1182.99 398.748-3.002 6.76h2.06l.565-1.353h3.07l.566 1.353h2.11l-2.99-6.76h-2.379Zm.258 3.89.9-2.153.9 2.152h-1.8Zm0 0" fill="#016fd0" fill-rule="evenodd" data-name="Path 3900"/><path d="M1182.286 397.805h3.72l1.307 2.968v-2.968h4.593l.792 2.224.795-2.224H1197v8.672h-18.535l3.82-8.672" fill="#fff" fill-rule="evenodd" data-name="Path 3899"/><path d="m1188.306 413.223 3.174-3.387-3.174-3.38h2.457l1.94 2.145 1.945-2.144H1197v.053l-3.107 3.326 3.107 3.291v.096h-2.375l-1.975-2.166-1.954 2.166h-2.39" fill="#016fd0" fill-rule="evenodd" data-name="Path 3898"/><path d="M1182.597 413.223v-6.767h5.737v1.56h-3.88v1.057h3.788v1.533h-3.787v1.04h3.88v1.577h-5.738" fill="#016fd0" fill-rule="evenodd" data-name="Path 3897"/><path d="M1181.566 414.174v-8.672l15.434.014v2.396l-1.784 1.906 1.784 1.924v2.446h-2.848l-1.514-1.67-1.503 1.677-9.57-.02" fill="#fff" fill-rule="evenodd" data-name="Path 3896"/></g><path d="M1165 394h29a3 3 0 0 1 3 3v18a3 3 0 0 1-3 3h-29a3 3 0 0 1-3-3v-18a3 3 0 0 1 3-3z" fill="#016fd0" fill-rule="evenodd" data-name="Rectangle 3036"/></g></svg>