<svg xmlns="http://www.w3.org/2000/svg" width="35" height="24" viewBox="0 0 35 24">
  <g id="Group_2221" data-name="Group 2221" transform="translate(-1155 -393)">
    <rect id="Rectangle_3036" data-name="Rectangle 3036" width="35" height="24" rx="3" transform="translate(1155 393)" fill="#016fd0"/>
    <g id="Group_2222" data-name="Group 2222" transform="translate(951.251 87.828)">
      <path id="Path_3896" data-name="Path 3896" d="M281.2,401.691V393.02l15.434.014v2.4l-1.784,1.906,1.784,1.924v2.446h-2.848l-1.514-1.67-1.5,1.677-9.569-.02" transform="translate(-57.889 -76.346)" fill="#fff" fill-rule="evenodd"/>
      <path id="Path_3897" data-name="Path 3897" d="M288.871,406.884v-6.767h5.738v1.559h-3.88v1.058h3.787v1.533h-3.787v1.039h3.88v1.577h-5.738" transform="translate(-64.526 -82.489)" fill="#016fd0" fill-rule="evenodd"/>
      <path id="Path_3898" data-name="Path 3898" d="M331.336,406.887l3.174-3.387-3.174-3.379h2.457l1.94,2.144,1.945-2.144h2.352v.053l-3.107,3.326,3.107,3.291v.1h-2.375l-1.974-2.166-1.954,2.166h-2.39" transform="translate(-101.281 -82.493)" fill="#016fd0" fill-rule="evenodd"/>
      <path id="Path_3899" data-name="Path 3899" d="M261.961,335.773h3.72l1.307,2.967v-2.967h4.593l.792,2.223.795-2.223h3.507v8.671H258.141l3.821-8.671" transform="translate(-37.927 -26.796)" fill="#fff" fill-rule="evenodd"/>
      <path id="Path_3900" data-name="Path 3900" d="M272.471,342.781l-3,6.761h2.059l.566-1.354h3.069l.566,1.354h2.11l-2.99-6.761Zm.258,3.89.9-2.152.9,2.152Zm0,0" transform="translate(-47.732 -32.862)" fill="#016fd0" fill-rule="evenodd"/>
      <path id="Path_3901" data-name="Path 3901" d="M331.523,349.534v-6.761l2.894.01,1.489,4.156,1.5-4.166h2.786v6.761l-1.792.016v-4.644l-1.692,4.629h-1.636l-1.727-4.644v4.644h-1.82" transform="translate(-101.444 -32.855)" fill="#016fd0" fill-rule="evenodd"/>
    </g>
  </g>
</svg>
