<svg xmlns="http://www.w3.org/2000/svg" width="35.736" height="35.736" viewBox="0 0 35.736 35.736">
  <g id="Group_2583" data-name="Group 2583" transform="translate(-19.133)">
    <g id="Group_2143" data-name="Group 2143" transform="translate(19.133)">
      <path id="Path_3751" data-name="Path 3751" d="M9.927,0H25.809a9.927,9.927,0,0,1,9.927,9.927V25.809a9.927,9.927,0,0,1-9.927,9.927H9.927A9.927,9.927,0,0,1,0,25.809V9.927A9.927,9.927,0,0,1,9.927,0Z" transform="translate(0 0)" fill="#209ca2"/>
      <g id="search" transform="translate(10.136 10.135)">
        <path id="Path_3752" data-name="Path 3752" d="M15.2,13.819,12.21,10.825a6.769,6.769,0,1,0-1.364,1.364l2.995,2.995A.964.964,0,1,0,15.2,13.821ZM6.815,11.611a4.817,4.817,0,1,1,4.817-4.817A4.816,4.816,0,0,1,6.815,11.611Z" transform="translate(-0.021 0)" fill="#fff"/>
      </g>
    </g>
  </g>
</svg>
