<svg xmlns="http://www.w3.org/2000/svg" width="17.775" height="19.32" viewBox="0 0 17.775 19.32">
  <g id="Group_2587" data-name="Group 2587" transform="translate(-1716.447 -33.34)">
    <g id="Group_1661" data-name="Group 1661" transform="translate(1716.447 33.34)">
      <path id="Rectangle_147" data-name="Rectangle 147" d="M3.709,1.546A2.166,2.166,0,0,0,1.546,3.709v9.583a2.166,2.166,0,0,0,2.164,2.164H14.065a2.166,2.166,0,0,0,2.164-2.164V3.709a2.166,2.166,0,0,0-2.164-2.164H3.709M3.709,0H14.065a3.709,3.709,0,0,1,3.709,3.709v9.583A3.709,3.709,0,0,1,14.065,17H3.709A3.709,3.709,0,0,1,0,13.292V3.709A3.709,3.709,0,0,1,3.709,0Z" transform="translate(0 2.318)"/>
      <rect id="Rectangle_2727" data-name="Rectangle 2727" width="1.932" height="5.41" rx="0.966" transform="translate(4.637)"/>
      <rect id="Rectangle_2728" data-name="Rectangle 2728" width="1.731" height="10.043" rx="0.866" transform="translate(13.909 9.46) rotate(90)"/>
      <rect id="Rectangle_2729" data-name="Rectangle 2729" width="1.932" height="5.41" rx="0.966" transform="translate(11.592)"/>
    </g>
  </g>
</svg>
