<svg xmlns="http://www.w3.org/2000/svg" width="17.367" height="17.367" viewBox="1513.833 80.083 17.367 17.367"><g data-name="calendar (1)"><path d="M1525.041 90.837a1.084 1.084 0 1 1 0 .1z" fill="#d7d7d9" fill-rule="evenodd" data-name="Ellipse 512"/><path d="M1517.816 90.837a1.084 1.084 0 1 1 0 .1z" fill="#d7d7d9" fill-rule="evenodd" data-name="Ellipse 511"/><path d="M1521.429 90.837a1.084 1.084 0 1 1 0 .1z" fill="#d7d7d9" fill-rule="evenodd" data-name="Ellipse 510"/><path d="M1527.57 81.545h-.723v-.723a.722.722 0 1 0-1.445 0v.723h-5.78v-.723a.722.722 0 1 0-1.444 0v.723h-.723a3.617 3.617 0 0 0-3.612 3.612v8.67a3.617 3.617 0 0 0 3.612 3.612h10.115a3.617 3.617 0 0 0 3.612-3.612v-8.67a3.617 3.617 0 0 0-3.612-3.612Zm-12.282 3.612c0-1.197.97-2.167 2.167-2.167h10.115c1.197 0 2.167.97 2.167 2.167v.722h-14.45v-.722Zm12.282 10.837h-10.115a2.167 2.167 0 0 1-2.167-2.167v-6.503h14.45v6.503c0 1.197-.971 2.167-2.168 2.167Z" fill="#d7d7d9" fill-rule="evenodd" data-name="Path 3890"/></g></svg>