<svg xmlns="http://www.w3.org/2000/svg" width="14.148" height="14.148" viewBox="1001.604 793.426 14.148 14.148"><g data-name="clock (2)"><path d="M1008.678 796.963a.59.59 0 0 0-.59.59v2.55l-1.987 1.244a.59.59 0 0 0 .627 1.002l2.263-1.415a.59.59 0 0 0 .277-.505v-2.876a.59.59 0 0 0-.59-.59Z" fill="#0a3133" fill-rule="evenodd" data-name="Path 3881"/><path d="M1008.678 793.426a7.074 7.074 0 1 0 7.074 7.074 7.082 7.082 0 0 0-7.074-7.074Zm0 12.969a5.895 5.895 0 1 1 5.895-5.895 5.901 5.901 0 0 1-5.895 5.895Z" fill="#0a3133" fill-rule="evenodd" data-name="Path 3880"/></g></svg>