<svg xmlns="http://www.w3.org/2000/svg" width="18.983" height="14.25" viewBox="1513.017 31.883 18.983 14.25"><g data-name="credit-card"><path d="M1528.042 31.888h-11.063a3.956 3.956 0 0 0-3.951 3.951v6.322a3.956 3.956 0 0 0 3.95 3.951h11.064a3.956 3.956 0 0 0 3.951-3.951v-6.322a3.956 3.956 0 0 0-3.95-3.951Zm-11.063 1.58h11.063a2.37 2.37 0 0 1 2.37 2.371h-15.804a2.37 2.37 0 0 1 2.37-2.37Zm11.063 11.064h-11.063a2.37 2.37 0 0 1-2.37-2.371V37.42h15.804v4.741a2.37 2.37 0 0 1-2.37 2.37Z" fill="#d7d7d9" fill-rule="evenodd" data-name="Path 3884"/><path d="M1516.627 41.04a1.13 1.13 0 1 1 0 .1z" fill="#d7d7d9" fill-rule="evenodd" data-name="Ellipse 505"/></g></svg>