<svg xmlns="http://www.w3.org/2000/svg" width="17.084" height="12.813" viewBox="728.391 440.175 17.084 12.813"><g data-name="credit-card"><path d="M741.916 440.175h-9.965a3.563 3.563 0 0 0-3.56 3.56v5.694a3.563 3.563 0 0 0 3.56 3.56h9.965a3.563 3.563 0 0 0 3.56-3.56v-5.695a3.563 3.563 0 0 0-3.56-3.559Zm-9.965 1.424h9.965c1.18 0 2.136.956 2.136 2.135h-14.237c0-1.179.956-2.135 2.136-2.135Zm9.965 9.966h-9.965a2.136 2.136 0 0 1-2.136-2.136v-4.27h14.237v4.27c0 1.18-.956 2.136-2.136 2.136Z" fill-rule="evenodd" data-name="Path 3884"/><path d="M731.633 448.41a1.017 1.017 0 1 1 0 .1z" fill-rule="evenodd" data-name="Ellipse 505"/></g></svg>