<svg xmlns="http://www.w3.org/2000/svg" width="35.736" height="35.736" viewBox="0 0 35.736 35.736">
  <g id="Group_2585" data-name="Group 2585" transform="translate(-16.133 0)">
    <g id="Group_2144" data-name="Group 2144" transform="translate(16.133)">
      <path id="Path_3753" data-name="Path 3753" d="M9.927,0H25.809a9.927,9.927,0,0,1,9.927,9.927V25.809a9.927,9.927,0,0,1-9.927,9.927H9.927A9.927,9.927,0,0,1,0,25.809V9.927A9.927,9.927,0,0,1,9.927,0Z" transform="translate(0)" fill="#f7f7f8"/>
      <path id="rocket-lunch" d="M1.451,13.806A8.7,8.7,0,0,0,.034,16.9,1.343,1.343,0,0,0,1.643,18.5a8.7,8.7,0,0,0,3.084-1.416h0a2.318,2.318,0,1,0-3.276-3.281Zm2.184,2.185h0a7.777,7.777,0,0,1-2.008.914A7.8,7.8,0,0,1,2.542,14.9.772.772,0,1,1,3.634,15.99ZM16.2,0h0A11.96,11.96,0,0,0,6.668,4.638a8.545,8.545,0,0,0-3.528.9A6.255,6.255,0,0,0,.188,8.367,2.282,2.282,0,0,0,.381,10.53a2.324,2.324,0,0,0,1.947,1.054h1.92a2.716,2.716,0,0,1,2.7,2.7v1.92A2.324,2.324,0,0,0,8,18.154a2.282,2.282,0,0,0,2.162.193A6.255,6.255,0,0,0,13,15.4a8.545,8.545,0,0,0,.9-3.528,11.975,11.975,0,0,0,4.64-9.55A2.324,2.324,0,0,0,16.2,0ZM3.356,10.039H2.328a.772.772,0,0,1-.656-.356.734.734,0,0,1-.066-.7A4.77,4.77,0,0,1,3.832,6.917a6.945,6.945,0,0,1,1.539-.556,26.535,26.535,0,0,0-2.015,3.678ZM11.62,14.7a4.773,4.773,0,0,1-2.063,2.226.734.734,0,0,1-.7-.066.772.772,0,0,1-.356-.656V15.178a26.536,26.536,0,0,0,3.678-2.015,6.945,6.945,0,0,1-.558,1.539Zm.1-3.1a23.106,23.106,0,0,1-3.3,1.908,4.247,4.247,0,0,0-3.4-3.4,23.106,23.106,0,0,1,1.909-3.3c2.6-3.628,5.3-5.155,9.281-5.268a.772.772,0,0,1,.772.751C16.876,6.3,15.35,9,11.722,11.6Z" transform="translate(8.774 8.432)" fill="#b4b4b4"/>
    </g>
  </g>
</svg>
