<svg xmlns="http://www.w3.org/2000/svg" width="35.736" height="35.736" viewBox="0 0 35.736 35.736">
  <g id="Group_2584" data-name="Group 2584" transform="translate(-22.131 0)">
    <g id="Group_2146" data-name="Group 2146" transform="translate(22.131)">
      <path id="Path_3874" data-name="Path 3874" d="M9.927,0H25.809a9.927,9.927,0,0,1,9.927,9.927V25.809a9.927,9.927,0,0,1-9.927,9.927H9.927A9.927,9.927,0,0,1,0,25.809V9.927A9.927,9.927,0,0,1,9.927,0Z" transform="translate(0)" fill="#f7f7f8"/>
      <path id="smile_2_" data-name="smile (2)" d="M8.531,17.063a8.531,8.531,0,1,1,8.531-8.531,8.531,8.531,0,0,1-8.531,8.531Zm0-15.641a7.109,7.109,0,1,0,7.109,7.109A7.109,7.109,0,0,0,8.531,1.422Zm4.028,9.773a.711.711,0,0,0-.946-1.062,5.338,5.338,0,0,1-3.083,1.243A5.338,5.338,0,0,1,5.45,10.134.711.711,0,1,0,4.5,11.194a6.721,6.721,0,0,0,4.028,1.6,6.721,6.721,0,0,0,4.028-1.6ZM4.266,7.109c0,.711.636.711,1.422.711s1.422,0,1.422-.711a1.422,1.422,0,1,0-2.844,0Zm5.688,0c0,.711.636.711,1.422.711s1.422,0,1.422-.711a1.422,1.422,0,1,0-2.844,0Z" transform="translate(9.336 9.337)" fill="#c4c4c4"/>
    </g>
  </g>
</svg>
