<svg xmlns="http://www.w3.org/2000/svg" width="24.017" height="24.033" viewBox="367.95 856.683 24.017 24.033"><g data-name="info (4)"><path d="M378.466 863.104a1.5 1.5 0 1 1 0 .1z" fill-rule="evenodd" data-name="Ellipse 514"/><path d="M379.966 866.704h-1a1 1 0 0 0 0 2h1v6a1 1 0 0 0 2 0v-6a2 2 0 0 0-2-2Z" fill-rule="evenodd" data-name="Path 3915"/><path d="M379.966 856.704c-6.627 0-12 5.373-12 12s5.373 12 12 12c6.628 0 12-5.373 12-12-.007-6.624-5.375-11.993-12-12Zm0 22c-5.523 0-10-4.477-10-10s4.477-10 10-10 10 4.477 10 10c-.006 5.52-4.48 9.994-10 10Z" fill-rule="evenodd" data-name="Path 3914"/></g></svg>