<svg xmlns="http://www.w3.org/2000/svg" width="21.783" height="21.783" viewBox="291.95 21.867 21.783 21.783"><g data-name="info (3)"><path d="M301.482 27.675a1.359 1.359 0 1 1 0 .1z" fill="#b2b7b7" fill-rule="evenodd" data-name="Ellipse 605"/><path d="M302.84 30.945h-.905a.906.906 0 0 0 0 1.812h.906v5.435a.906.906 0 1 0 1.811 0v-5.435c0-1-.81-1.812-1.811-1.812Z" fill="#b2b7b7" fill-rule="evenodd" data-name="Path 3887"/><path d="M302.84 21.887c-6.002 0-10.869 4.867-10.869 10.87 0 6.003 4.867 10.87 10.87 10.87 6.003 0 10.87-4.867 10.87-10.87-.007-6-4.87-10.863-10.87-10.87Zm0 19.928a9.058 9.058 0 1 1 9.059-9.058 9.068 9.068 0 0 1-9.058 9.058Z" fill="#b2b7b7" fill-rule="evenodd" data-name="Path 3886"/></g></svg>