<svg xmlns="http://www.w3.org/2000/svg" width="14.027" height="16.742" viewBox="538.738 511.642 14.027 16.742"><g data-name="marker (2)"><path d="M545.752 528.383a3.677 3.677 0 0 1-3.007-1.534c-2.659-3.667-4.007-6.424-4.007-8.194a7.014 7.014 0 1 1 14.027 0c0 1.77-1.348 4.527-4.006 8.194a3.677 3.677 0 0 1-3.007 1.534Zm0-15.219a5.499 5.499 0 0 0-5.493 5.492c0 1.402 1.32 3.995 3.718 7.3a2.194 2.194 0 0 0 3.55 0c2.397-3.305 3.717-5.898 3.717-7.3a5.499 5.499 0 0 0-5.492-5.492Z" fill="#979d9d" fill-rule="evenodd" data-name="Path 3777"/><path d="M545.752 515.828a2.79 2.79 0 1 0 0 5.58 2.79 2.79 0 0 0 0-5.58Zm0 4.185a1.395 1.395 0 1 1 0-2.79 1.395 1.395 0 0 1 0 2.79Z" fill="#979d9d" fill-rule="evenodd" data-name="Path 3776"/></g></svg>