<svg xmlns="http://www.w3.org/2000/svg" width="18.067" height="21.567" viewBox="538.717 511.617 18.067 21.567"><g data-name="marker (2)"><path d="M547.755 533.166a4.727 4.727 0 0 1-3.866-1.973c-3.417-4.714-5.15-8.258-5.15-10.534a9.017 9.017 0 1 1 18.034 0c0 2.276-1.734 5.82-5.152 10.534a4.727 4.727 0 0 1-3.866 1.973Zm0-19.567a7.07 7.07 0 0 0-7.06 7.062c0 1.802 1.697 5.136 4.778 9.385a2.82 2.82 0 0 0 4.565 0c3.081-4.25 4.779-7.583 4.779-9.385a7.07 7.07 0 0 0-7.062-7.062Z" fill="#209ca2" fill-rule="evenodd" data-name="Path 3777"/><path d="M547.755 517.024a3.587 3.587 0 1 0 0 7.174 3.587 3.587 0 0 0 0-7.174Zm0 5.38a1.794 1.794 0 1 1 0-3.586 1.794 1.794 0 0 1 0 3.587Z" fill="#209ca2" fill-rule="evenodd" data-name="Path 3776"/></g></svg>