<svg xmlns="http://www.w3.org/2000/svg" width="16.2" height="19.333" viewBox="26.017 143.75 16.2 19.333"><g data-name="marker (2)"><path d="M34.115 163.064a4.235 4.235 0 0 1-3.464-1.768c-3.063-4.224-4.616-7.4-4.616-9.439a8.08 8.08 0 0 1 16.16 0c0 2.04-1.554 5.215-4.616 9.44a4.236 4.236 0 0 1-3.464 1.767Zm0-17.532a6.334 6.334 0 0 0-6.327 6.327c0 1.615 1.52 4.602 4.282 8.41a2.527 2.527 0 0 0 4.09 0c2.76-3.808 4.282-6.795 4.282-8.41a6.334 6.334 0 0 0-6.327-6.327Z" fill="#0a3133" fill-rule="evenodd" data-name="Path 3777"/><path d="M34.115 148.6a3.214 3.214 0 1 0 0 6.429 3.214 3.214 0 0 0 0-6.429Zm0 4.822a1.607 1.607 0 1 1 0-3.215 1.607 1.607 0 0 1 0 3.215Z" fill="#0a3133" fill-rule="evenodd" data-name="Path 3776"/></g></svg>