<svg xmlns="http://www.w3.org/2000/svg" width="15.867" height="19.033" viewBox="1758 80.25 15.867 19.033"><g data-name="lock (1)"><path d="M1765.93 91.353a.792.792 0 0 0-.793.791v1.584a.792.792 0 1 0 1.584 0v-1.584a.792.792 0 0 0-.792-.791Z" fill="#d7d7d9" fill-rule="evenodd" data-name="Path 3892"/><path d="M1771.47 86.938v-1.127a5.542 5.542 0 1 0-11.083 0v1.127a3.958 3.958 0 0 0-2.375 3.623v4.75a3.963 3.963 0 0 0 3.959 3.958h7.916a3.963 3.963 0 0 0 3.959-3.958v-4.75a3.958 3.958 0 0 0-2.375-3.623Zm-9.5-1.127a3.958 3.958 0 1 1 7.917 0v.792h-7.916v-.792Zm10.292 9.5a2.375 2.375 0 0 1-2.375 2.375h-7.916a2.375 2.375 0 0 1-2.375-2.375v-4.75a2.375 2.375 0 0 1 2.375-2.375h7.916a2.375 2.375 0 0 1 2.375 2.375v4.75Z" fill="#d7d7d9" fill-rule="evenodd" data-name="Path 3891"/></g></svg>