<svg xmlns="http://www.w3.org/2000/svg" width="32.167" height="25.417" viewBox="10.417 13.8 32.167 25.417"><path d="M29.207 39.174a12.069 12.069 0 0 1-1.338-.142 13.22 13.22 0 0 1-1.293-.278 12.85 12.85 0 0 1-1.24-.406 12.88 12.88 0 0 1-1.747-.832 13.083 13.083 0 0 1-1.587-1.08 13.304 13.304 0 0 1-1.31-1.201 1.024 1.024 0 1 1 1.507-1.36l.162.164a10.571 10.571 0 0 0 7.53 3.123c2.845 0 5.52-1.109 7.53-3.123a10.596 10.596 0 0 0 3.12-7.539c0-2.848-1.108-5.525-3.12-7.539a10.575 10.575 0 0 0-7.53-3.123c-2.844 0-5.518 1.11-7.53 3.123a10.71 10.71 0 0 0-.459.489 1.022 1.022 0 0 1-1.884-.555c0-.3.13-.57.336-.758a12.544 12.544 0 0 1 .85-.881 13.005 13.005 0 0 1 1.02-.864 12.772 12.772 0 0 1 2.915-1.662 12.01 12.01 0 0 1 1.29-.443 12.296 12.296 0 0 1 2.042-.4 13.122 13.122 0 0 1 1.42-.08 13.128 13.128 0 0 1 1.296.066c.212.022.426.049.636.08a13.308 13.308 0 0 1 1.237.254 12.694 12.694 0 0 1 2.875 1.133 12.466 12.466 0 0 1 1.543.99 12.046 12.046 0 0 1 .938.775 12.127 12.127 0 0 1 1.258 1.321 12.103 12.103 0 0 1 .73.977 11.888 11.888 0 0 1 .636 1.047 12.55 12.55 0 0 1 .76 1.686 12.264 12.264 0 0 1 .512 1.806 12.294 12.294 0 0 1 .193 1.26 12.843 12.843 0 0 1-.705 5.663 12.131 12.131 0 0 1-.48 1.138 12.518 12.518 0 0 1-1.268 2.09 12.993 12.993 0 0 1-1.636 1.803 12.907 12.907 0 0 1-1.95 1.46 13.495 13.495 0 0 1-1.077.585 13.658 13.658 0 0 1-1.138.481 13.74 13.74 0 0 1-1.19.37 12.907 12.907 0 0 1-1.238.254 12.497 12.497 0 0 1-1.28.13 13.128 13.128 0 0 1-1.336-.002ZM14.87 31.29l-4.132-4.016a1.003 1.003 0 0 1 .032-1.476.905.905 0 0 1 .113-.099l4.141-4.026a.947.947 0 0 1 1.31 0 .884.884 0 0 1 0 1.274l-2.636 2.564H27.08a.967.967 0 0 1 0 1.934H13.89l2.466 2.399c.412.4.412 1.047 0 1.446-.205.2-.474.3-.744.3s-.538-.1-.743-.3Z" fill="#fd6e84" fill-rule="evenodd" data-name="Union 40"/></svg>