<svg xmlns="http://www.w3.org/2000/svg" width="35.033" height="24.017" viewBox="1119.967 393.983 35.033 24.017"><g data-name="Group 2219"><g data-name="Mastercard-Logo.wine"><path d="M1149.353 406a7.325 7.325 0 0 1-11.853 5.759 7.326 7.326 0 0 0 0-11.52 7.325 7.325 0 0 1 11.852 5.76Z" fill="#f79e1b" fill-rule="evenodd" data-name="path893"/><path d="M1148.653 410.54v-.236h.101v-.049h-.242v.05h.096v.235h.045Zm.47 0v-.285h-.074l-.085.204-.086-.204h-.073v.285h.053v-.216l.08.186h.054l.08-.186v.216h.05Z" fill="#f79e1b" fill-rule="evenodd" data-name="path891"/><path d="M1134.702 406a7.313 7.313 0 0 1 2.798-5.758 7.325 7.325 0 1 0 0 11.52 7.313 7.313 0 0 1-2.798-5.762Z" fill="#eb001b" fill-rule="evenodd" data-name="path889"/><path d="M1133.975 400.24h7.053v11.52h-7.053v-11.52Z" fill="#ff5f00" fill-rule="evenodd" data-name="rect887"/></g><path d="M1123 394h29a3 3 0 0 1 3 3v18a3 3 0 0 1-3 3h-29a3 3 0 0 1-3-3v-18a3 3 0 0 1 3-3z" fill="#030005" fill-rule="evenodd" data-name="Rectangle 3036"/></g></svg>