<svg xmlns="http://www.w3.org/2000/svg" width="35" height="24" viewBox="0 0 35 24">
  <g id="Group_2219" data-name="Group 2219" transform="translate(-1155 -393)">
    <rect id="Rectangle_3036" data-name="Rectangle 3036" width="35" height="24" rx="3" transform="translate(1155 393)" fill="#030005"/>
    <g id="Mastercard-Logo.wine" transform="translate(1160.647 397.675)">
      <path id="rect887" d="M224.833,42.3h7.053V53.817h-7.053Z" transform="translate(-216.505 -40.733)" fill="#ff5f00"/>
      <path id="path889" d="M9.055,7.4a7.313,7.313,0,0,1,2.8-5.759,7.325,7.325,0,1,0,0,11.519A7.313,7.313,0,0,1,9.055,7.4Z" transform="translate(0 -0.074)" fill="#eb001b"/>
      <path id="path891" d="M617.451,312.988v-.236h.1V312.7h-.242v.049h.1v.236Zm.47,0V312.7h-.073l-.086.2-.086-.2H617.6v.285h.053v-.216l.079.185h.055l.079-.185v.216Z" transform="translate(-594.446 -301.123)" fill="#f79e1b"/>
      <path id="path893" d="M331.838,7.325a7.325,7.325,0,0,1-11.853,5.759,7.325,7.325,0,0,0,0-11.519,7.325,7.325,0,0,1,11.853,5.759Z" transform="translate(-308.132 0)" fill="#f79e1b"/>
    </g>
  </g>
</svg>
