<svg xmlns="http://www.w3.org/2000/svg" width="20.983" height="18.767" viewBox="303.3 24.567 20.983 18.767"><g data-name="Group 2575"><path d="M304.354 39.573h6.469c.432-1.091 1.598-1.874 2.965-1.874 1.366 0 2.532.783 2.965 1.874h6.468c.58 0 1.049.42 1.049.937 0 .518-.47.937-1.049.937h-6.468c-.433 1.092-1.599 1.875-2.965 1.875-1.367 0-2.533-.783-2.965-1.875h-6.47c-.578 0-1.048-.419-1.048-.937s.47-.937 1.049-.937Zm9.434 0c-.579 0-1.049.42-1.049.937 0 .517.47.937 1.049.937.577 0 1.048-.42 1.048-.937 0-.516-.47-.937-1.048-.937Zm-9.434-6.56h13.806c.432-1.091 1.599-1.875 2.965-1.875 1.734 0 3.145 1.262 3.145 2.812 0 1.55-1.411 2.811-3.145 2.811-1.366 0-2.533-.783-2.965-1.874h-13.806c-.58 0-1.049-.42-1.049-.937 0-.518.47-.937 1.049-.937Zm16.77 0c-.577 0-1.047.42-1.047.937 0 .517.47.937 1.048.937.578 0 1.048-.42 1.048-.937 0-.517-.47-.937-1.048-.937Zm-14.674-8.435c1.367 0 2.532.783 2.965 1.874h13.806c.58 0 1.049.42 1.049.938 0 .517-.47.937-1.049.937h-13.806c-.432 1.09-1.598 1.874-2.965 1.874-1.734 0-3.145-1.261-3.145-2.812 0-1.55 1.41-2.811 3.145-2.811Zm0 1.874c-.578 0-1.048.42-1.048.937 0 .517.47.938 1.048.938.578 0 1.048-.42 1.048-.938 0-.516-.47-.937-1.048-.937Z" fill="#0a3133" fill-rule="evenodd" data-name="Union 38"/></g></svg>