<svg xmlns="http://www.w3.org/2000/svg" width="35.736" height="35.736" viewBox="0 0 35.736 35.736">
  <g id="Group_2586" data-name="Group 2586" transform="translate(-16.133 0)">
    <g id="Group_2145" data-name="Group 2145" transform="translate(16.133)">
      <path id="Path_3754" data-name="Path 3754" d="M9.927,0H25.809a9.927,9.927,0,0,1,9.927,9.927V25.809a9.927,9.927,0,0,1-9.927,9.927H9.927A9.927,9.927,0,0,1,0,25.809V9.927A9.927,9.927,0,0,1,9.927,0Z" transform="translate(0)" fill="#f7f7f8"/>
      <g id="user_4_" data-name="user (4)" transform="translate(11.287 9.085)">
        <path id="Path_3759" data-name="Path 3759" d="M10.542,9.085A4.542,4.542,0,1,0,6,4.542a4.542,4.542,0,0,0,4.542,4.542Zm0-7.571A3.028,3.028,0,1,1,7.514,4.542a3.028,3.028,0,0,1,3.028-3.028Z" transform="translate(-3.729 0)" fill="#c4c4c4"/>
        <path id="Path_3760" data-name="Path 3760" d="M9.813,14A6.821,6.821,0,0,0,3,20.813a.757.757,0,1,0,1.514,0,5.3,5.3,0,1,1,10.6,0,.757.757,0,0,0,1.514,0A6.821,6.821,0,0,0,9.813,14Z" transform="translate(-3 -3.401)" fill="#c4c4c4"/>
      </g>
    </g>
  </g>
</svg>
