<svg xmlns="http://www.w3.org/2000/svg" width="32.749" height="34.304" viewBox="0 0 32.749 34.304">
  <g id="Group_2247" data-name="Group 2247" transform="translate(0 11.241) rotate(-40)">
    <path id="Union_82" data-name="Union 82" d="M7.185,9.08A1.015,1.015,0,1,1,8.2,10.1,1.015,1.015,0,0,1,7.185,9.08Zm-3.592,0A1.015,1.015,0,1,1,4.608,10.1,1.015,1.015,0,0,1,3.592,9.08ZM0,9.08A1.015,1.015,0,1,1,1.015,10.1,1.015,1.015,0,0,1,0,9.08ZM7.185,5.048A1.015,1.015,0,1,1,8.2,6.063,1.015,1.015,0,0,1,7.185,5.048Zm-3.592,0A1.015,1.015,0,1,1,4.608,6.063,1.015,1.015,0,0,1,3.592,5.048ZM0,5.048A1.015,1.015,0,1,1,1.015,6.063,1.015,1.015,0,0,1,0,5.048ZM7.185,1.015A1.015,1.015,0,1,1,8.2,2.031,1.015,1.015,0,0,1,7.185,1.015Zm-3.592,0A1.015,1.015,0,1,1,4.608,2.031,1.015,1.015,0,0,1,3.592,1.015ZM0,1.015A1.015,1.015,0,1,1,1.016,2.031,1.015,1.015,0,0,1,0,1.015Z" transform="translate(4.136 4.825)"/>
    <path id="Union_80" data-name="Union 80" d="M8.107,30.106a1.128,1.128,0,0,1-1.128-1.128V21.9a16.429,16.429,0,0,0-1.362-1.387c-.84-.757-1.925-1.607-2.49-2.041q-.159-.11-.311-.227l-.035.064.035-.064A7.209,7.209,0,0,1,0,12.524v-5.3A7.221,7.221,0,0,1,7.221,0h3.046a7.221,7.221,0,0,1,7.221,7.221v5.3a7.208,7.208,0,0,1-2.817,5.723l.034.063-.034-.063c-.108.083-.219.164-.331.241-.57.438-1.64,1.278-2.47,2.026a16.419,16.419,0,0,0-1.338,1.359v7.105A1.128,1.128,0,0,1,9.4,30.106Zm.778-8.462A17.219,17.219,0,0,1,10.6,19.737c-.11,0-.22.007-.332.007H7.221q-.168,0-.334-.008A17.224,17.224,0,0,1,8.6,21.644ZM1.749,7.221v5.3A5.478,5.478,0,0,0,7.221,18h3.046a5.478,5.478,0,0,0,5.472-5.472v-5.3a5.478,5.478,0,0,0-5.472-5.472H7.221A5.478,5.478,0,0,0,1.749,7.221Z" transform="translate(-0.001 0)"/>
  </g>
</svg>
