<svg xmlns="http://www.w3.org/2000/svg" width="10.5" height="21.833" viewBox="551.783 23.167 10.5 21.833"><g data-name="Group 680"><path d="m552.051 43.13 8.231-9.809a1.13 1.13 0 0 1 1.592-.14 1.13 1.13 0 0 1 .14 1.593l-8.232 9.809a1.13 1.13 0 0 1-1.591.14 1.13 1.13 0 0 1-.14-1.593z" fill="#0a3133" fill-rule="evenodd" data-name="Rectangle 1610"/><path d="m553.783 23.576 8.23 9.81a1.13 1.13 0 0 1-.139 1.591 1.13 1.13 0 0 1-1.592-.14l-8.23-9.809a1.13 1.13 0 0 1 .139-1.591 1.13 1.13 0 0 1 1.592.139z" fill="#0a3133" fill-rule="evenodd" data-name="Rectangle 142"/></g></svg>