<svg xmlns="http://www.w3.org/2000/svg" width="29.333" height="29.317" viewBox="1573.5 309.833 29.333 29.317"><g data-name="settings-svgrepo-com"><g data-name="Group 696"><path d="M1588.184 318.174a6.326 6.326 0 0 0-6.323 6.323 6.326 6.326 0 0 0 6.323 6.322 6.326 6.326 0 0 0 6.322-6.322 6.326 6.326 0 0 0-6.322-6.323Zm0 10.993a4.673 4.673 0 0 1-4.67-4.67 4.673 4.673 0 0 1 4.67-4.67 4.673 4.673 0 0 1 4.67 4.67 4.673 4.673 0 0 1-4.67 4.67Z" fill-rule="evenodd" data-name="Path 1479"/><path d="m1601.33 321.424-2.056-.349a11.612 11.612 0 0 0-.826-1.995l1.211-1.695a1.804 1.804 0 0 0-.195-2.332l-1.824-1.824a1.797 1.797 0 0 0-2.326-.196l-1.702 1.212a11.491 11.491 0 0 0-2.068-.85l-.343-2.033a1.808 1.808 0 0 0-1.787-1.511h-2.577c-.887 0-1.64.636-1.787 1.511l-.355 2.081c-.686.214-1.353.496-1.99.839l-1.682-1.212a1.797 1.797 0 0 0-1.053-.337c-.484 0-.943.19-1.28.533l-1.83 1.824a1.812 1.812 0 0 0-.195 2.332l1.224 1.72c-.337.642-.606 1.31-.814 2l-2.032.344c-.875.146-1.512.9-1.512 1.787v2.576c0 .888.637 1.64 1.512 1.788l2.08.355c.215.685.497 1.352.84 1.989l-1.206 1.677a1.804 1.804 0 0 0 .196 2.332l1.823 1.823a1.797 1.797 0 0 0 2.326.196l1.72-1.224c.618.325 1.267.588 1.934.796l.343 2.056c.147.876.9 1.512 1.787 1.512h2.583c.887 0 1.64-.636 1.787-1.512l.349-2.056c.692-.214 1.359-.49 1.995-.826l1.696 1.211c.306.22.673.337 1.052.337.484 0 .937-.19 1.28-.532l1.823-1.824c.625-.625.71-1.61.196-2.332l-1.212-1.702c.337-.642.618-1.31.827-1.995l2.056-.343a1.808 1.808 0 0 0 1.512-1.787v-2.577a1.786 1.786 0 0 0-1.5-1.787Zm-.14 4.364c0 .08-.056.147-.135.16l-2.57.428a.822.822 0 0 0-.662.606 9.798 9.798 0 0 1-1.065 2.564.828.828 0 0 0 .037.9l1.512 2.13a.167.167 0 0 1-.019.208l-1.823 1.824a.155.155 0 0 1-.117.049.15.15 0 0 1-.092-.03l-2.123-1.513a.827.827 0 0 0-.9-.036 9.798 9.798 0 0 1-2.565 1.065.812.812 0 0 0-.605.66l-.435 2.571a.159.159 0 0 1-.16.135h-2.576a.159.159 0 0 1-.159-.135l-.428-2.57a.822.822 0 0 0-.606-.661 10.174 10.174 0 0 1-2.51-1.029.847.847 0 0 0-.416-.11.806.806 0 0 0-.477.153l-2.142 1.524a.182.182 0 0 1-.092.03.164.164 0 0 1-.117-.048l-1.823-1.824a.166.166 0 0 1-.019-.208l1.506-2.112a.838.838 0 0 0 .037-.906 9.706 9.706 0 0 1-1.078-2.558.838.838 0 0 0-.66-.606l-2.59-.44a.159.159 0 0 1-.134-.16v-2.576c0-.08.055-.147.134-.16l2.553-.428a.828.828 0 0 0 .667-.612c.226-.9.575-1.769 1.046-2.57a.817.817 0 0 0-.042-.894l-1.524-2.142a.167.167 0 0 1 .018-.208l1.824-1.824a.155.155 0 0 1 .116-.05.15.15 0 0 1 .092.031l2.111 1.506c.27.19.625.202.906.037a9.706 9.706 0 0 1 2.559-1.077.838.838 0 0 0 .606-.661l.44-2.59a.159.159 0 0 1 .16-.134h2.576c.08 0 .147.055.16.135l.428 2.552a.828.828 0 0 0 .612.667 9.934 9.934 0 0 1 2.625 1.077c.282.165.63.153.9-.037l2.112-1.517a.182.182 0 0 1 .091-.031c.025 0 .074.006.117.049l1.824 1.824c.055.055.06.14.018.208l-1.512 2.124a.827.827 0 0 0-.037.9 9.798 9.798 0 0 1 1.065 2.564c.08.318.343.557.661.606l2.571.434c.08.013.135.08.135.16v2.576h-.007Z" fill-rule="evenodd" data-name="Path 1478"/></g></g></svg>