<svg xmlns="http://www.w3.org/2000/svg" width="26.067" height="26.067" viewBox="247.467 158.467 26.067 26.067"><path d="M260.5 184.52c-7.19 0-13.02-5.83-13.02-13.02 0-7.19 5.83-13.019 13.02-13.019 7.19 0 13.019 5.829 13.019 13.019-.008 7.187-5.832 13.011-13.02 13.02Zm0-23.87c-5.992 0-10.85 4.858-10.85 10.85s4.858 10.85 10.85 10.85c5.991 0 10.849-4.858 10.849-10.85-.007-5.99-4.86-10.843-10.85-10.85Zm6.147 14.914a1.085 1.085 0 0 0-1.443-1.62 8.146 8.146 0 0 1-4.704 1.896 8.147 8.147 0 0 1-4.703-1.895 1.085 1.085 0 1 0-1.445 1.62 10.257 10.257 0 0 0 6.148 2.445 10.257 10.257 0 0 0 6.147-2.446Zm-12.657-6.234c0 1.085.971 1.085 2.17 1.085 1.199 0 2.17 0 2.17-1.085a2.17 2.17 0 1 0-4.34 0Zm8.68 0c0 1.085.97 1.085 2.17 1.085 1.198 0 2.17 0 2.17-1.085a2.17 2.17 0 0 0-4.34 0Z" fill="#209ca2" fill-rule="evenodd" data-name="smile (2)"/></svg>