<svg xmlns="http://www.w3.org/2000/svg" width="68.45" height="20.867" viewBox="1128.567 452.133 68.45 20.867"><g data-name="Swish_(payment)-Logo.wine (5)"><path d="M24.664 1.014c-4.184-2-9.347-1.01-12.466 2.706-.376.448-.714.926-1.01 1.43a9.104 9.104 0 0 0 3.139 8.434c.631.53 1.332.972 2.082 1.314A8.133 8.133 0 0 1 15.407 3.44C17.71.695 21.502-.22 24.663 1.014" fill-rule="evenodd" fill="url(&quot;#a&quot;)" transform="translate(1118.824 452.149)" data-name="Path 3906"/><path d="M14.903 1.014c-4.184-2-9.347-1.01-12.466 2.706C-1.26 8.126-.686 14.693 3.719 18.388l2.93-3.49A8.133 8.133 0 0 1 5.645 3.44C7.95.695 11.741-.22 14.903 1.014" fill-rule="evenodd" fill="url(&quot;#b&quot;)" transform="translate(1128.585 452.149)" data-name="Path 3905"/><path d="M0 43.35c4.183 2 9.347 1.01 12.466-2.706.376-.447.713-.926 1.01-1.43a9.104 9.104 0 0 0-3.14-8.433 9.119 9.119 0 0 0-2.081-1.315 8.133 8.133 0 0 1 1.001 11.459C6.953 43.669 3.162 44.585 0 43.35" fill-rule="evenodd" fill="url(&quot;#c&quot;)" transform="translate(1134.508 428.611)" data-name="Path 3904"/><path d="M0 17.374c4.183 2 9.347 1.01 12.466-2.706C16.163 10.263 15.589 3.696 11.183 0L8.255 3.49a8.133 8.133 0 0 1 1.002 11.459C6.953 17.693 3.16 18.609 0 17.374" fill-rule="evenodd" fill="url(&quot;#d&quot;)" transform="translate(1134.508 454.587)" data-name="Path 3903"/><path d="M1193.617 457.942a1.765 1.765 0 0 1 .493-1.226c.152-.158.333-.283.533-.371.204-.09.422-.135.656-.135.237 0 .459.045.666.135a1.695 1.695 0 0 1 .902.92c.089.21.133.436.133.677a1.746 1.746 0 0 1-.495 1.226 1.694 1.694 0 0 1-.54.37c-.207.09-.429.135-.666.135-.234 0-.452-.045-.656-.135a1.681 1.681 0 0 1-.533-.37 1.763 1.763 0 0 1-.493-1.226Zm.346 0c0 .199.034.384.102.555.065.165.16.316.282.446.12.126.264.228.424.299.163.072.339.109.528.109.193 0 .371-.037.536-.11a1.343 1.343 0 0 0 .715-.744c.07-.171.104-.356.104-.555 0-.2-.034-.385-.104-.556a1.342 1.342 0 0 0-.715-.745 1.308 1.308 0 0 0-.536-.109c-.19 0-.365.037-.528.11-.16.07-.304.172-.424.298-.122.13-.218.281-.282.446-.068.171-.102.356-.102.556Zm.758-.745c0-.105.052-.157.157-.157h.535a.56.56 0 0 1 .407.147.53.53 0 0 1 .152.399.516.516 0 0 1-.109.325.461.461 0 0 1-.104.097.363.363 0 0 1-.114.052v.01a.14.14 0 0 1 .014.019c.008.009.015.02.02.03a.37.37 0 0 0 .028.05l.246.48c.028.053.035.097.019.13-.016.033-.05.05-.104.05h-.057c-.089 0-.15-.038-.185-.114l-.275-.579h-.294v.54c0 .102-.048.153-.146.153h-.043c-.098 0-.147-.05-.147-.152v-1.48Zm.62.692a.278.278 0 0 0 .214-.08.313.313 0 0 0 .076-.223.29.29 0 0 0-.076-.214.281.281 0 0 0-.208-.076h-.29v.593h.285Zm-13.81 1.135c.536 0 .99.068 1.363.205.372.137.664.263.874.378.178.095.283.221.315.38a.803.803 0 0 1-.079.504l-.157.284c-.095.19-.216.3-.363.331-.147.032-.32.005-.52-.079a7.136 7.136 0 0 0-.645-.26 2.637 2.637 0 0 0-.883-.134c-.346 0-.614.068-.803.205a.677.677 0 0 0-.284.584c0 .22.097.4.292.536.194.137.44.258.74.363.3.105.62.218.961.34.337.118.66.274.961.465.296.186.549.433.74.725.195.295.292.668.292 1.12 0 .358-.07.687-.213.986-.141.3-.346.56-.614.781-.268.221-.59.395-.969.52-.378.127-.798.19-1.26.19-.651 0-1.2-.095-1.647-.284-.446-.19-.79-.368-1.031-.536-.179-.105-.279-.237-.3-.395-.02-.157.027-.326.142-.504l.19-.284c.115-.169.243-.263.385-.284.142-.021.313.02.512.126.19.105.433.223.733.355.299.131.654.197 1.063.197.347 0 .62-.074.82-.22.199-.148.299-.348.299-.6a.609.609 0 0 0-.292-.529 3.479 3.479 0 0 0-.74-.363l-.961-.355a5.102 5.102 0 0 1-.961-.473 2.439 2.439 0 0 1-.74-.726c-.195-.294-.292-.673-.292-1.136 0-.389.081-.736.244-1.04.159-.301.385-.56.662-.758.278-.2.604-.352.977-.458.372-.105.769-.157 1.189-.157Zm-23.417 0c.535 0 .99.068 1.362.205.373.137.665.263.875.378.178.095.283.221.315.38a.803.803 0 0 1-.079.504l-.158.284c-.094.19-.215.3-.362.331-.147.032-.32.005-.52-.079a7.133 7.133 0 0 0-.646-.26 2.637 2.637 0 0 0-.882-.134c-.347 0-.614.068-.803.205a.677.677 0 0 0-.284.584c0 .22.097.4.291.536.195.137.442.258.74.363.3.105.62.218.962.34.337.118.659.274.96.465.297.186.55.433.741.725.195.295.292.668.292 1.12 0 .358-.071.687-.213.986-.142.3-.347.56-.614.781-.268.221-.591.395-.97.52-.377.127-.797.19-1.26.19-.65 0-1.2-.095-1.646-.284-.446-.19-.79-.368-1.032-.536-.178-.105-.278-.237-.299-.395-.02-.157.026-.326.142-.504l.189-.284c.115-.169.244-.263.386-.284.142-.021.312.02.512.126.189.105.433.223.732.355.3.131.654.197 1.064.197.346 0 .62-.074.819-.22.2-.148.3-.348.3-.6a.609.609 0 0 0-.292-.529 3.478 3.478 0 0 0-.74-.363l-.962-.355a5.103 5.103 0 0 1-.96-.473 2.438 2.438 0 0 1-.74-.726c-.195-.294-.292-.673-.292-1.136 0-.389.08-.736.244-1.04.159-.301.385-.56.661-.758.279-.2.604-.352.977-.458.373-.105.77-.157 1.19-.157Zm28.725-2.966c.441 0 .662.22.662.662v3.25c0 .106-.003.198-.008.276-.005.08-.013.15-.024.213-.01.063-.015.126-.015.19h.031c.095-.19.228-.382.402-.576a3.181 3.181 0 0 1 1.418-.907c.299-.095.622-.142.968-.142.893 0 1.584.242 2.072.726.488.483.733 1.262.733 2.334v4.512c0 .442-.22.663-.662.663h-.677c-.442 0-.662-.22-.662-.663v-4.101c0-.495-.084-.892-.252-1.192-.168-.3-.504-.45-1.008-.45a2.2 2.2 0 0 0-.953.206 2.146 2.146 0 0 0-.733.56c-.2.237-.355.518-.465.844-.11.326-.165.678-.165 1.057v3.076c0 .442-.22.663-.662.663h-.677c-.441 0-.662-.22-.662-.663v-9.876c0-.441.22-.662.662-.662h.677Zm-10.467 3.155c.43 0 .646.221.646.663v6.72c0 .442-.215.663-.646.663h-.693c-.43 0-.646-.22-.646-.663v-6.72c0-.442.215-.663.646-.663h.693Zm-13.367 0c.4 0 .635.195.709.584l1.292 4.701c.02.116.04.221.055.316.016.094.034.184.055.268.021.095.037.184.047.268h.032c.01-.084.026-.173.047-.268.021-.084.04-.174.055-.268.016-.095.04-.2.071-.316l1.355-4.701c.073-.379.315-.568.725-.568h.598c.389 0 .63.19.725.568l1.339 4.701c.031.116.055.221.07.316.017.094.035.184.056.268.021.095.037.184.047.268h.032c.011-.09.027-.18.047-.268a3.46 3.46 0 0 0 .055-.268c.016-.095.04-.2.071-.316l1.276-4.701c.095-.39.336-.584.725-.584h.725c.241 0 .41.068.504.205.094.137.11.316.047.537l-2.064 6.752c-.105.368-.352.552-.74.552h-1.056c-.399 0-.646-.19-.74-.568l-1.213-4.023a3.451 3.451 0 0 1-.08-.315 6.162 6.162 0 0 0-.062-.284 2.928 2.928 0 0 1-.047-.269h-.032c-.022.09-.043.179-.063.269a6.144 6.144 0 0 0-.063.284 3.472 3.472 0 0 1-.079.315l-1.213 4.023c-.094.379-.336.568-.724.568h-1.087c-.379 0-.62-.184-.725-.552l-2.08-6.752c-.063-.221-.044-.4.056-.537s.265-.205.496-.205h.756Z" fill="#4a4a49" fill-rule="evenodd" data-name="Path 3902"/></g><defs><linearGradient x1=".898" y1=".537" x2=".665" y2=".073" id="d"><stop stop-color="#ef2131" offset="0"/><stop stop-color="#fecf2c" offset="1"/></linearGradient><linearGradient x1=".616" y1="-.011" x2=".097" y2=".888" id="c"><stop stop-color="#fbc52c" offset="0"/><stop stop-color="#f87130" offset=".264"/><stop stop-color="#ef52e2" offset=".561"/><stop stop-color="#661eec" offset="1"/></linearGradient><linearGradient x1=".228" y1=".369" x2=".451" y2=".822" id="b"><stop stop-color="#78f6d8" offset="0"/><stop stop-color="#77d1f6" offset=".266"/><stop stop-color="#70a4f3" offset=".554"/><stop stop-color="#661eec" offset="1"/></linearGradient><linearGradient x1=".449" y1=".955" x2=".964" y2=".06" id="a"><stop stop-color="#536eed" offset="0"/><stop stop-color="#54c3ec" offset=".247"/><stop stop-color="#64d769" offset=".564"/><stop stop-color="#fecf2c" offset="1"/></linearGradient></defs></svg>