<svg xmlns="http://www.w3.org/2000/svg" width="32.31" height="34.047" viewBox="0 0 32.31 34.047">
  <g id="Group_2246" data-name="Group 2246" transform="translate(0 10.608) rotate(-40)">
    <path id="Union_79" data-name="Union 79" d="M7.64,30.6a1.019,1.019,0,0,1-1.019-1.019V22.821a14.872,14.872,0,0,0-.841-1.71c-.495-.858-1.164-1.856-1.536-2.4A10.464,10.464,0,0,1,0,9.984C0,4.47,3.694,0,8.252,0S16.5,4.47,16.5,9.984a10.4,10.4,0,0,1-4.425,8.847c-.382.561-.994,1.482-1.455,2.281a14.845,14.845,0,0,0-.794,1.6v6.869A1.019,1.019,0,0,1,8.811,30.6Zm.832-7.946a16.272,16.272,0,0,1,1.09-2.295c.114-.2.235-.4.359-.594a6.92,6.92,0,0,1-3.458-.031c.131.207.259.418.379.625a16.279,16.279,0,0,1,1.09,2.295ZM1.579,9.984c0,4.634,2.993,8.4,6.673,8.4s6.673-3.77,6.673-8.4-2.993-8.4-6.673-8.4S1.579,5.349,1.579,9.984Z" transform="translate(-0.001 0)"/>
    <path id="Union_81" data-name="Union 81" d="M5.046,13.581v-2.6H3v1.174a.611.611,0,1,1-1.222,0V10.981H1.006a.611.611,0,0,1,0-1.223h.767V7.707H.611a.611.611,0,0,1,0-1.223H1.773V4.434H1.006a.611.611,0,0,1,0-1.223h.767V2.038A.611.611,0,1,1,3,2.038V3.212H5.046V.611a.611.611,0,1,1,1.222,0v2.6H8.319V2.038a.611.611,0,0,1,1.222,0V3.212h.767a.611.611,0,0,1,0,1.223H9.542V6.485H10.7a.611.611,0,0,1,0,1.223H9.542V9.758h.767a.611.611,0,0,1,0,1.223H9.542v1.174a.611.611,0,1,1-1.222,0V10.981H6.268v2.6a.611.611,0,1,1-1.222,0ZM8.319,9.758V7.707H6.268V9.758Zm-3.273,0V7.707H3V9.758ZM8.319,6.485V4.434H6.268V6.485Zm-3.273,0V4.434H3V6.485Z" transform="translate(2.594 2.888)"/>
  </g>
</svg>
