<svg xmlns="http://www.w3.org/2000/svg" width="28.55" height="31.883" viewBox="21.35 22.183 28.55 31.883"><g data-name="Group 1952"><path d="m37.086 40.36-2.07-2.467-1.945 1.632.935 1.114a.757.757 0 1 1-1.16.973l-.934-1.114-.727.61a.757.757 0 1 1-.973-1.16l.727-.61-1.632-1.944-1.102.924a.757.757 0 1 1-.973-1.16l1.102-.924-1.632-1.945-.727.61a.757.757 0 1 1-.973-1.16l.727-.61-.934-1.113a.757.757 0 0 1 1.16-.973l.934 1.114 1.945-1.632-2.07-2.466a.757.757 0 1 1 1.16-.973l2.069 2.466 1.945-1.632-.935-1.114a.757.757 0 0 1 1.16-.972l.934 1.113.727-.61a.757.757 0 0 1 .973 1.16l-.727.61 1.632 1.945 1.102-.925a.757.757 0 1 1 .973 1.16l-1.102.924 1.632 1.945.727-.61a.757.757 0 1 1 .973 1.16l-.727.61.934 1.113a.757.757 0 1 1-1.16.973l-.934-1.114-1.944 1.632 2.069 2.467a.757.757 0 1 1-1.16.972Zm.062-6.231-1.632-1.945-1.945 1.632 1.632 1.945 1.945-1.632Zm-3.105 2.605-1.632-1.945-1.945 1.632 1.632 1.945 1.945-1.632Zm.5-5.71L32.91 29.08l-1.945 1.632 1.632 1.944 1.945-1.632Zm-3.105 2.605-1.632-1.945-1.944 1.632 1.631 1.945 1.945-1.632Z" fill="#fff" fill-rule="evenodd" data-name="Union 81"/><path d="M48.33 53.761a1.261 1.261 0 0 1-1.778-.155l-5.377-6.409a18.414 18.414 0 0 0-2.16-.953c-1.152-.42-2.58-.834-3.365-1.053-3.758.398-7.984-1.34-10.972-4.901-4.388-5.23-4.441-12.41-.119-16.036 4.323-3.627 11.384-2.328 15.772 2.901 3.058 3.645 4.01 8.237 2.844 11.913.084.836.237 2.196.436 3.32.15.854.352 1.606.518 2.15l5.467 6.514c.448.534.378 1.33-.156 1.777l-1.11.932Zm-5.535-8.198a20.148 20.148 0 0 1-.925-3.894 8.552 8.552 0 0 1-3.304 2.723 20.155 20.155 0 0 1 3.717 1.6l.512-.43Zm-16.62-6.53c3.689 4.395 9.529 5.59 13.018 2.66 3.49-2.927 3.328-8.885-.36-13.28-3.688-4.396-9.527-5.59-13.017-2.662s-3.328 8.887.36 13.282Z" fill="#fff" fill-rule="evenodd" data-name="Union 79"/></g></svg>