<svg xmlns="http://www.w3.org/2000/svg" width="20.15" height="24.15" viewBox="29.45 16.933 20.15 24.15"><g data-name="trash"><path d="M41.548 35.033c.555 0 1.006-.45 1.006-1.006v-6.032a1.005 1.005 0 0 0-2.011 0v6.032c0 .555.45 1.006 1.005 1.006Z" fill-rule="evenodd" data-name="Path 3801"/><path d="M37.526 35.033c.556 0 1.006-.45 1.006-1.006v-6.032a1.005 1.005 0 0 0-2.011 0v6.032c0 .555.45 1.006 1.005 1.006Z" fill-rule="evenodd" data-name="Path 3800"/><path d="M48.586 20.957H45.47a5.036 5.036 0 0 0-4.926-4.022h-2.011a5.036 5.036 0 0 0-4.927 4.022h-3.117a1.005 1.005 0 0 0 0 2.01h1.006v13.071a5.033 5.033 0 0 0 5.027 5.027h6.033a5.033 5.033 0 0 0 5.027-5.027v-13.07h1.005a1.005 1.005 0 1 0 0-2.011Zm-10.054-2.011h2.01a3.022 3.022 0 0 1 2.845 2.01h-7.7a3.022 3.022 0 0 1 2.845-2.01Zm7.038 17.092a3.016 3.016 0 0 1-3.016 3.016H36.52a3.016 3.016 0 0 1-3.016-3.016v-13.07H45.57v13.07Z" fill-rule="evenodd" data-name="Path 3799"/></g></svg>