<svg xmlns="http://www.w3.org/2000/svg" xmlns:xlink="http://www.w3.org/1999/xlink" width="35" height="24" viewBox="0 0 35 24">
  <defs>
    <linearGradient id="linear-gradient" y1="0.373" x2="0.008" y2="0.373" gradientUnits="objectBoundingBox">
      <stop offset="0" stop-color="#fff"/>
      <stop offset="1" stop-color="#254aa5"/>
    </linearGradient>
    <clipPath id="clip-path">
      <path id="Path_3894" data-name="Path 3894" d="M126.443-28.448c-.016,1.226,1.092,1.91,1.927,2.317.858.417,1.146.685,1.142,1.058-.007.571-.684.823-1.318.833a4.6,4.6,0,0,1-2.261-.538l-.4,1.865a6.63,6.63,0,0,0,2.449.452c2.313,0,3.826-1.142,3.834-2.912.009-2.246-3.107-2.371-3.086-3.375.007-.3.3-.629.935-.712a4.145,4.145,0,0,1,2.171.381l.387-1.8a5.9,5.9,0,0,0-2.061-.378c-2.177,0-3.708,1.157-3.72,2.813m9.5-2.658a1,1,0,0,0-.937.624l-3.3,7.888h2.311l.46-1.271H137.3l.267,1.271H139.6l-1.777-8.512h-1.881m.323,2.3.667,3.2h-1.827l1.16-3.2m-12.625-2.3-1.822,8.512h2.2l1.821-8.512h-2.2m-3.258,0-2.292,5.794-.927-4.926a1.027,1.027,0,0,0-1.016-.867H112.4l-.052.247a9.168,9.168,0,0,1,2.173.724.932.932,0,0,1,.523.748l1.756,6.793h2.327l3.568-8.512h-2.313" transform="translate(-112.348 31.262)" fill="url(#linear-gradient)"/>
    </clipPath>
  </defs>
  <g id="Group_2220" data-name="Group 2220" transform="translate(-1113 -393)">
    <g id="Rectangle_3035" data-name="Rectangle 3035" transform="translate(1113 393)" fill="#fff" stroke="#dfdfe2" stroke-width="1">
      <rect width="35" height="24" rx="3" stroke="none"/>
      <rect x="0.5" y="0.5" width="34" height="23" rx="2.5" fill="none"/>
    </g>
    <g id="Visa_Inc.-Logo.wine" transform="translate(1116.874 400.6)" clip-path="url(#clip-path)">
      <path id="Path_3893" data-name="Path 3893" d="M0-1.36l26.852-9.889L32.961,5.339,6.109,15.228" transform="translate(-2.854 2.411)" fill="url(#linear-gradient)"/>
    </g>
  </g>
</svg>
