<svg xmlns="http://www.w3.org/2000/svg" width="31.017" height="31.017" viewBox="17.733 18.467 31.017 31.017"><path d="M17.74 33.976c0-8.56 6.94-15.5 15.501-15.5 1.44 0 2.835.196 4.158.563l.058-.03.026.054c6.5 1.845 11.257 7.823 11.257 14.913 0 8.56-6.938 15.5-15.499 15.5-8.56 0-15.5-6.94-15.5-15.5Zm15.501 12.973c.767 0 1.519-.067 2.25-.196a34.654 34.654 0 0 0 2.48-6.628h-8.523a34.444 34.444 0 0 0 2.549 6.764c.409.04.824.06 1.244.06Zm-4.367-.757a36.13 36.13 0 0 1-2.034-6.067h-5.02a13.046 13.046 0 0 0 7.054 6.067Zm9.872-.47a13.06 13.06 0 0 0 5.916-5.597h-4.084a36.06 36.06 0 0 1-1.832 5.597Zm6.954-8.124c.335-1.15.514-2.366.514-3.622 0-1.135-.146-2.236-.421-3.286h-4.72c.156 1.133.248 2.29.248 3.44 0 1.179-.097 2.343-.26 3.468H45.7Zm-7.197 0c.182-1.126.29-2.293.29-3.468 0-1.143-.104-2.303-.277-3.44h-9.613a22.962 22.962 0 0 0-.278 3.44c0 1.175.11 2.342.291 3.468h9.587Zm-12.146 0a24.344 24.344 0 0 1-.259-3.468c0-1.15.092-2.307.248-3.44H20.69a12.952 12.952 0 0 0-.422 3.286c0 1.256.18 2.472.515 3.622h5.575Zm18.48-9.435a13.058 13.058 0 0 0-5.985-5.883 42.777 42.777 0 0 1 1.768 5.883h4.217Zm-6.816 0c-.704-2.962-1.722-5.537-2.325-6.927a12.992 12.992 0 0 0-3.908-.152c-.59 1.349-1.66 4.005-2.39 7.08h8.623Zm-11.222 0c.544-2.478 1.31-4.716 1.951-6.359a13.047 13.047 0 0 0-7.106 6.36H26.8Z" fill="#1b8186" fill-rule="evenodd" data-name="Union 66"/></svg>