<svg xmlns="http://www.w3.org/2000/svg" width="298.793" height="408.99" viewBox="0 0 298.793 408.99">
  <g id="Group_2810" data-name="Group 2810" transform="translate(-1169.093 -274.005)">
    <g id="Group_2280" data-name="Group 2280" transform="translate(75.426 72.911)">
      <g id="Group_1187" data-name="Group 1187" transform="translate(1092.187 401.322)">
        <g id="Group_755" data-name="Group 755" transform="translate(244.321 8.663) rotate(12)">
          <path id="Path_22" data-name="Path 22" d="M9.092,0s9.253,12.918,9.253,23.48-7.137,18.889-7.137,18.889S0,32.53,0,21.968,9.092,0,9.092,0Z" transform="matrix(0.927, 0.375, -0.375, 0.927, 21.688, 0)" fill="#b3e689"/>
          <path id="Path_28" data-name="Path 28" d="M3.463,0S6.987,9.212,6.987,16.744A35.766,35.766,0,0,1,4.269,30.213S0,23.2,0,15.665,3.463,0,3.463,0Z" transform="matrix(0.848, -0.53, 0.53, 0.848, 0, 45.996)" fill="#b3e689"/>
          <path id="Path_29" data-name="Path 29" d="M2.366,0S4.774,6.294,4.774,11.44a24.436,24.436,0,0,1-1.857,9.2A21.88,21.88,0,0,1,0,10.7,32.06,32.06,0,0,1,2.366,0Z" transform="translate(1.162 58.145) rotate(-50)" fill="#a1cf7b"/>
          <path id="Path_23" data-name="Path 23" d="M16.337,0s5.971,15.408,5.325,29.064S9.718,49.128,9.718,49.128.338,38.726,0,25.087,16.337,0,16.337,0Z" transform="translate(40.706 1.203) rotate(29)" fill="#b3e689"/>
          <path id="Path_24" data-name="Path 24" d="M.383,49.288A.383.383,0,0,1,.016,48.8a73.44,73.44,0,0,1,3.231-8.282,91.024,91.024,0,0,1,4.273-8.28,79.292,79.292,0,0,1,6.263-9.223,101.79,101.79,0,0,1,7.907-8.775c2.418-2.411,5.074-4.868,7.893-7.3,4.8-4.147,8.464-6.831,8.5-6.857a.383.383,0,0,1,.452.618c-.036.026-3.679,2.7-8.458,6.823-2.8,2.423-5.446,4.867-7.851,7.265a101.017,101.017,0,0,0-7.844,8.7,78.517,78.517,0,0,0-6.2,9.125,90.25,90.25,0,0,0-4.236,8.2,72.726,72.726,0,0,0-3.2,8.2A.383.383,0,0,1,.383,49.288Z" transform="matrix(0.978, -0.208, 0.208, 0.978, 8.265, 24.47)" fill="#fff"/>
          <path id="Path_25" data-name="Path 25" d="M.769,56.384a.383.383,0,0,1-.379-.331c-.006-.043-.145-1.064-.256-2.82a70.547,70.547,0,0,1-.075-7.224A64.251,64.251,0,0,1,1.2,36.163,47.237,47.237,0,0,1,4.6,25.477c1.978-4.26,4.319-8.727,6.957-13.276C15.677,5.093,19.144.209,19.178.161A.383.383,0,0,1,19.8.605c-.034.048-3.482,4.906-7.585,11.98C9.591,17.114,7.261,21.56,5.293,25.8A46.466,46.466,0,0,0,1.952,36.3,63.465,63.465,0,0,0,.824,46.023,69.791,69.791,0,0,0,.9,53.17c.11,1.734.25,2.769.252,2.78a.383.383,0,0,1-.38.435Z" transform="matrix(0.978, -0.208, 0.208, 0.978, 6.567, 17.407)" fill="#fff"/>
          <path id="Path_26" data-name="Path 26" d="M14.795.5a61.74,61.74,0,0,1,1.2,14.151C15.345,28.3,4.045,34.712,4.045,34.712S.333,34.572,0,20.933c1.5-7.8,5.011-8.16,8.9-10.669C12.3,7.938,14.25-2.362,14.795.5Z" transform="translate(38.678 16.562) rotate(29)" opacity="0.103"/>
          <path id="Path_27" data-name="Path 27" d="M8.89,15.032A43.014,43.014,0,0,1,.1,3.688c-.789-1.552,3.284-5.931,6-2.256.075.1,4.985,4.1,5.085,4.294C12.8,8.749,8.89,15.032,8.89,15.032Z" transform="matrix(0.927, 0.375, -0.375, 0.927, 13.595, 26.215)" opacity="0.095"/>
        </g>
        <g id="Group_756" data-name="Group 756" transform="translate(0 39.963) rotate(-9)">
          <path id="Path_22-2" data-name="Path 22" d="M7.338,34.194s7.468-10.426,7.468-18.95S9.045,0,9.045,0,0,7.94,0,16.464,7.338,34.194,7.338,34.194Z" transform="translate(43.484 31.704) rotate(158)" fill="#b3e689"/>
          <path id="Path_28-2" data-name="Path 28" d="M2.795,24.384s.164-.428.436-1.232C4,20.893,5.639,15.49,5.639,10.871A28.865,28.865,0,0,0,3.445,0S0,5.662,0,11.741a36.072,36.072,0,0,0,2.315,11.4C2.588,23.9,2.795,24.384,2.795,24.384Z" transform="matrix(-0.848, -0.53, 0.53, -0.848, 35.256, 57.8)" fill="#b3e689"/>
          <path id="Path_29-2" data-name="Path 29" d="M1.909,16.659A31.264,31.264,0,0,0,3.853,7.427,19.721,19.721,0,0,0,2.354,0,17.658,17.658,0,0,0,0,8.021,25.874,25.874,0,0,0,1.909,16.659Z" transform="translate(34.478 57.635) rotate(-130)" fill="#a1cf7b"/>
          <path id="Path_23-2" data-name="Path 23" d="M13.185,39.649S18,27.214,17.483,16.192,7.843,0,7.843,0,.273,8.395,0,19.4,13.185,39.649,13.185,39.649Z" transform="matrix(-0.875, 0.485, -0.485, -0.875, 34.547, 35.649)" fill="#b3e689"/>
          <path id="Path_24-2" data-name="Path 24" d="M30.992,39.925a.381.381,0,0,1-.226-.074c-.029-.021-2.989-2.189-6.865-5.538-2.277-1.967-4.421-3.951-6.374-5.9a82.224,82.224,0,0,1-6.387-7.088,64.068,64.068,0,0,1-5.061-7.452A73.535,73.535,0,0,1,2.627,7.186,59.352,59.352,0,0,1,.016.492.383.383,0,0,1,.75.273h0a58.638,58.638,0,0,0,2.581,6.61A72.762,72.762,0,0,0,6.745,13.5a63.293,63.293,0,0,0,4.995,7.354,81.45,81.45,0,0,0,6.324,7.018C20,29.8,22.134,31.775,24.4,33.729c3.854,3.33,6.793,5.483,6.822,5.5a.383.383,0,0,1-.226.692Z" transform="matrix(-0.978, -0.208, 0.208, -0.978, 33.294, 58.745)" fill="#fff"/>
          <path id="Path_25-2" data-name="Path 25" d="M15.8,45.653a.382.382,0,0,1-.312-.161c-.028-.039-2.828-3.984-6.156-9.722-2.13-3.673-4.02-7.28-5.618-10.721A38.2,38.2,0,0,1,.969,16.408,51.928,51.928,0,0,1,.047,8.45,57.011,57.011,0,0,1,.108,2.612C.2,1.192.311.365.316.331a.383.383,0,0,1,.759.1h0a50.477,50.477,0,0,0-.261,8,51.142,51.142,0,0,0,.909,7.833,37.425,37.425,0,0,0,2.69,8.458C6,28.146,7.879,31.732,10,35.386c3.31,5.708,6.09,9.623,6.118,9.662a.383.383,0,0,1-.312.605Z" transform="matrix(-0.978, -0.208, 0.208, -0.978, 33.474, 58.647)" fill="#fff"/>
          <path id="Path_26-2" data-name="Path 26" d="M11.94,27.613a49.827,49.827,0,0,0,.965-11.42C12.384,5.171,3.265,0,3.265,0S.269.112,0,11.12c1.213,6.292,4.044,6.586,7.182,8.61C9.93,21.607,11.5,29.92,11.94,27.613Z" transform="matrix(-0.875, 0.485, -0.485, -0.875, 30.544, 37.868)" opacity="0.103"/>
          <path id="Path_27-2" data-name="Path 27" d="M7.114,0A34.715,34.715,0,0,0,.02,9.155c-.313.615,3.175,1.193,5.031-1.254C6.894,5.471,7.114,0,7.114,0Z" transform="translate(41.694 32.427) rotate(158)" opacity="0.095"/>
        </g>
        <path id="Subtraction_37" data-name="Subtraction 37" d="M136.143,160.849c-2.31,0-4.631-.016-6.9-.05l143.786-47.874-.877.827-.772.728c-1.311,1.237-2.493,2.352-3.672,3.476-4.5,4.231-8,7.384-11.344,10.22a152.792,152.792,0,0,1-12.155,9.386l-63.316,21.149c-4.185.472-8.611.868-13.152,1.177-4.363.3-8.959.519-13.661.665C147.676,160.752,141.808,160.849,136.143,160.849Zm-21.155-.518h0c-6.879-.355-13.554-.909-19.838-1.645-6.765-.793-13.33-1.829-19.515-3.078-6.485-1.275-12.82-2.83-18.827-4.621a160.942,160.942,0,0,1-17.365-6.231,108.858,108.858,0,0,1-14.975-7.745,64.654,64.654,0,0,1-11.66-9.164A46.5,46.5,0,0,1,9,123.476a43.282,43.282,0,0,1-3.061-4.58L114.68,84.944,226.795,123.1Zm119.56-39.808h0L30.468,51.063l128.5-38.375-.019-.107L284.681,57.694a59.44,59.44,0,0,1,8.16,11.82,27.981,27.981,0,0,1,2.18,5.867,19.12,19.12,0,0,1,.51,5.83,20.783,20.783,0,0,1-1.4,6,33.305,33.305,0,0,1-3.1,5.952A77.256,77.256,0,0,1,281.168,105ZM3.689,114.408h0a44.007,44.007,0,0,1-2.5-7.766,49.889,49.889,0,0,1-1.1-8A59.877,59.877,0,0,1,.2,90.522a73.708,73.708,0,0,1,1.121-8.1c.43-2.346.959-4.643,1.571-6.826a65.739,65.739,0,0,1,2.238-6.631,58.278,58.278,0,0,1,2.99-6.359,53.579,53.579,0,0,1,3.828-6.012L22.3,53.5l84.423,28.733L3.689,114.408Zm14.5-64.86h0a54.339,54.339,0,0,1,4.529-3.821,58.777,58.777,0,0,1,5.172-3.481,77.825,77.825,0,0,1,8.539-4.476c2.9-1.317,6.057-2.588,9.654-3.888l95.4-27.569,9.755,3.5L22.36,48.3l-.276-.095-.037.188Zm258.592-.4L147.014,2.584c3.733-.758,7.277-1.322,10.835-1.727A127.685,127.685,0,0,1,172.816,0c4.619,0,9.356.233,14.081.7,4.645.454,9.315,1.131,13.877,2.014,4.53.875,8.99,1.958,13.254,3.219a120.587,120.587,0,0,1,12.213,4.317c2.361,1.008,4.711,2.117,6.987,3.295,2.171,1.124,4.346,2.35,6.464,3.644a117.069,117.069,0,0,1,11.635,8.14A226.359,226.359,0,0,1,271.3,43.658c1.787,1.769,3.688,3.659,5.479,5.487Z" transform="translate(2.446 47.914)" fill="#1b8186"/>
        <g id="Group_1185" data-name="Group 1185" transform="translate(53.635 32.426)">
          <g id="Bottom" transform="translate(0 77.697)">
            <path id="Path_8" data-name="Path 8" d="M29.693.226c13.35.891,21.2,2.141,21.2,4.836S39.326,9.28,24.714,8.486c-6.926-.377-11.5-.912-15.61-1.312C4.6,6.735.89,6.4,0,5.306,0,3.376,6.049.909,14.447.115,17.749-.2,25.749.226,29.693.226Z" transform="translate(0 63.494) rotate(-9)" opacity="0.153"/>
            <path id="legs" d="M-50.108-45.509l13.791-6.167,21.079-1.873A35.486,35.486,0,0,1-12.45-49.9c1.244,1.839,2.73,4.48,4.978,7.392,1.939,2.147,5.878,3.935,7.987,6.325,3.613,4.094,6.543,8.246,9.97,11.838,1.208,1.266,2.7,1.894,3.776,2.985,5.052,2.551,6.392,3.617,7.076,4.574,2.533,3.544.373,5.219.373,5.219a4.585,4.585,0,0,1-5.057,1.528c-1.592-.438-4.443-3.2-5.856-5.107-2.349-.893-3.955-.977-5.387-1.881-1.091-1.572-1.1-3.793-1.83-5.087A6.429,6.429,0,0,0,.514-24.953,46.093,46.093,0,0,1-5.8-28.3c-2.176-1.54-1.281-2.345-4.9-5.035s-3.817-2.353-9.564-5.725-9.591-7.352-13.426-7.764c-.774-.083-2.465,5.559-4.374,9.994s-4.387,10.981-4.387,10.981.229.34-1.045,9.608c-.429,3.123-2.015,7.405-2.624,11.535-.517,3.5-1.071,4.914-.678,9.818-.277,3.6-.746,6.111-.746,6.111s-4.294.74-5.61,0c-1.562-.817-1.617-2.853-2.206-3.2-2.071-1.22-2.911-1.14-3.339-1.634s-.5-2.827.943-4.236A7.013,7.013,0,0,1-53.9.124c.908-.472,1-.862,1-.862s-.932-11.96-.247-17.954a86.17,86.17,0,0,1,3.039-13.425,63.2,63.2,0,0,1-.464-6.951A49.143,49.143,0,0,1-50.108-45.509Z" transform="translate(74.032 53.55)" fill="#d6866f"/>
            <path id="sock_left" data-name="sock left" d="M-45.2,230.129a44.156,44.156,0,0,0-.917,4.375c-.314,2.127-.641,3.483-.765,5.359a30.384,30.384,0,0,0,.087,4.459c-.277,3.6-.746,6.111-.746,6.111s-4.294.74-5.61,0c-1.562-.817-1.617-2.853-2.206-3.2-2.071-1.22-2.911-1.14-3.339-1.634s-.5-2.827.943-4.236a7.013,7.013,0,0,1,3.847-2.029c.908-.472.939-.744.939-.744s-.318-5.016-.414-10.161c.084-.812,3.092-.464,4.5-.179S-45.088,229.36-45.2,230.129Z" transform="translate(74.032 -185.66)" fill="#fff"/>
            <g id="Stripes_left" data-name="Stripes left" transform="translate(20.639 44.023)">
              <path id="Path_4" data-name="Path 4" d="M-.572-.31a16.467,16.467,0,0,1,4.218.194,12.713,12.713,0,0,1,3.626,1.44l-.2.86A11.419,11.419,0,0,0,3.524.681,13.654,13.654,0,0,0-.545.593Z" transform="translate(0.572 0.366)" fill="#b3e689"/>
              <path id="Path_5" data-name="Path 5" d="M.109-.319a15.743,15.743,0,0,1,4.116.2A10.787,10.787,0,0,1,7.6,1.21l-.165.864A9.955,9.955,0,0,0,4.1.674,12.967,12.967,0,0,0,.136.583Z" transform="translate(-0.058 1.875)" fill="#b3e689"/>
            </g>
            <path id="shoe_left" data-name="shoe left" d="M-46.792,295.492c-.277,3.6-.746,6.111-.746,6.111s-4.294.74-5.61,0c-1.562-.817-1.617-2.853-2.206-3.2-2.071-1.22-2.911-1.14-3.339-1.634s-.5-2.827.943-4.236A7.013,7.013,0,0,1-53.9,290.5c.908-.472,1-.862,1-.862a2.478,2.478,0,0,1,2.33-1.5c1.635.136,1.213,2.06,1.57,2.361s.331,0,.876,0a4.656,4.656,0,0,1,1.332.31S-47.185,290.588-46.792,295.492Z" transform="translate(74.032 -236.831)" fill="#898383"/>
            <path id="shoe_sole_left" data-name="shoe sole left" d="M-49.649,315.248c.526.716.127.813.769,1.321a4.847,4.847,0,0,0,1.8.711l-.459,3.2s-4.294.74-5.61,0c-1.562-.817-1.617-2.853-2.206-3.2-2.071-1.22-2.911-1.14-3.339-1.634s-.5-2.827.943-4.236a4.689,4.689,0,0,1,3.257-1.052c1.023.075,3.508,3.346,3.508,3.346A17.669,17.669,0,0,1-49.649,315.248Z" transform="translate(74.032 -255.707)" fill="#08141c"/>
            <path id="shoe_sole_2_left" data-name="shoe sole 2 left" d="M-1.26,341.12c.526.716.127.813.769,1.321a4.847,4.847,0,0,0,1.8.711l-.459,3.2a1.928,1.928,0,0,0-1.2-1.75c-1.562-.817-1.423-.776-1.6-1.21s-.013-3.171.525-2.492C-1.388,340.949-1.322,341.035-1.26,341.12Z" transform="translate(25.643 -281.579)" fill="#fff"/>
            <path id="shadow_left_leg" data-name="shadow left leg" d="M-18.621-15.509-12-18.25s.595,1.143.4,4.132A64.321,64.321,0,0,1-13.07-5.292c-.678,3.358-1.351,2.731-1.175,4.894s2.48,1.672,2.641,3.764-1.736,4.512-2.7,7.061S-15.11,12.96-16.13,15.7s-2.492,12.124-2.492,12.124a2.321,2.321,0,0,0-1.548.1,3.859,3.859,0,0,0-1.244,1.338s-.932-11.96-.247-17.954A86.171,86.171,0,0,1-18.621-2.118a63.2,63.2,0,0,1-.464-6.951A49.143,49.143,0,0,1-18.621-15.509Z" transform="translate(42.55 23.55)" opacity="0.3"/>
            <path id="sock_right" data-name="sock right" d="M326.6,86.652c3.33,3.919,6.981,8.341,7.075,8.429,1.121,1.061,2.475,1.673,3.472,2.685,5.052,2.551,6.392,3.617,7.076,4.574,2.533,3.544.373,5.219.373,5.219a4.585,4.585,0,0,1-5.057,1.528c-1.593-.438-4.443-3.2-5.856-5.107-2.349-.893-3.956-.977-5.387-1.881a11.554,11.554,0,0,1-1.316-3.708,5.952,5.952,0,0,0-.514-1.379,6.428,6.428,0,0,0-3.062-2.836s-1.03-.45-2.374-1.113c-.539-.266,3.193-.555,4.586-2.157S326.442,86.324,326.6,86.652Z" transform="translate(-248.852 -65.579)" fill="#fff"/>
            <g id="Stripes_right" data-name="Stripes right" transform="translate(74.629 22.369)">
              <path id="Path_6" data-name="Path 6" d="M.317.6a5.4,5.4,0,0,1,3.521-.5A13.082,13.082,0,0,1,7.1,1.218s-.047.2-.086.407-.071.423-.071.423A12.269,12.269,0,0,0,3.716.9,5.718,5.718,0,0,0,0,1.624Z" transform="matrix(-0.545, 0.839, -0.839, -0.545, 6.999, 2.434)" fill="#b3e689"/>
              <path id="Path_7" data-name="Path 7" d="M.272.649A7.012,7.012,0,0,1,4.217.1,7.831,7.831,0,0,1,7.322,1.438s0,.205.028.422.065.443.065.443A9.835,9.835,0,0,0,4.094.9,7.545,7.545,0,0,0,0,1.549Z" transform="matrix(-0.545, 0.839, -0.839, -0.545, 5.97, 1.254)" fill="#b3e689"/>
            </g>
            <path id="shoe_right" data-name="shoe right" d="M366.946,140.892c-.056.18,2.7,1.894,3.776,2.985,5.053,2.551,6.392,3.617,7.076,4.574,2.533,3.544.373,5.219.373,5.219a4.585,4.585,0,0,1-5.057,1.528c-1.592-.438-4.443-3.2-5.856-5.107-2.349-.893-3.955-.977-5.387-1.881a12.886,12.886,0,0,1-1.382-3.944c-.065-.227.517-.215,2.551,1.278a2.553,2.553,0,0,0,1.773.128c.155-.091-.167-.955,0-1.406s.9-1.065,1.5-2.031A6.13,6.13,0,0,0,366.946,140.892Z" transform="translate(-282.429 -111.69)" fill="#898383"/>
            <path id="shadow_right_leg" data-name="shadow right leg" d="M137.037-29.821a13.821,13.821,0,0,1,6.559,1.686c3.617,1.868,3.535,2.282,7.909,5.787s8.013,6.876,9.587,8.234,4.25.879,7.217,4.212,1.814,5.862,4.652,9.12,4.5,1.839,6.7,3.914c1.815,1.71.412,2.866,2.107,4.231s4.67,1.229,4.67,1.229a4.585,4.585,0,0,1-5.057,1.528c-1.592-.438-4.443-3.2-5.856-5.107-2.349-.893-3.955-.977-5.387-1.881-1.091-1.572-1.1-3.793-1.83-5.087a6.429,6.429,0,0,0-3.062-2.836,46.092,46.092,0,0,1-6.312-3.348c-2.176-1.54-1.281-2.345-4.9-5.035s-3.817-2.353-9.564-5.725c-3.891-2.283-6.834-4.8-9.6-6.361,0,0,.73-1.866,1.219-2.888A13.489,13.489,0,0,1,137.037-29.821Z" transform="translate(-90.7 33.388)" opacity="0.296"/>
            <path id="pants" d="M45.292-35.9a37.08,37.08,0,0,0-5.339-1.692l7.792-3.485L56.58-39.7A17.063,17.063,0,0,0,55.4-37.64c-.594,1.22-1,2.536-1.2,2.817a9.8,9.8,0,0,0-3.732-1.459A21.788,21.788,0,0,0,48.892-33.6C48.818-33.191,47.481-34.937,45.292-35.9Z" transform="translate(-9.616 42.947)" fill="#b3e689"/>
          </g>
          <g id="arm_left" data-name="arm left" transform="translate(26.928 52.368)">
            <path id="arm_left-2" data-name="arm left" d="M75.151,103.191a23.489,23.489,0,0,0,4.739,3.471,15.059,15.059,0,0,0,4.918,1.448l2.563.649,7.45.821s1.584-.933,2.7-1.469a5.879,5.879,0,0,1,3.927.252c.807.347,1.357,1.919.557,3.491s-1.357,2.635-2.616,2.852a22.42,22.42,0,0,1-2.593.093c-1.142.112-1.186.017-3.543.106s-5.885.25-5.885.25-6.891-.084-11.364,0c-1.5.028-3.175-1.321-4.474-2.2a21.476,21.476,0,0,1-4.011-3.508s-.29-3.487,1.573-5.085S75.151,103.191,75.151,103.191Z" transform="translate(-67.506 -103.14)" fill="#d6866f" opacity="0.998"/>
            <path id="wrist_band" data-name="wrist band" d="M191.184,140.568l7.45.821a6.194,6.194,0,0,0-1.244,5.334l-6.206.241-1.046-.011a5.966,5.966,0,0,1,1.046-6.384Z" transform="translate(-171.318 -134.948)" fill="#fff"/>
            <path id="shadow_left_arm" data-name="shadow left arm" d="M96.8,127.067c-1.142.112-1.186.017-3.543.106s-5.885.25-5.885.25-6.891-.084-11.364,0c-1.5.028-3.175-1.321-4.474-2.2a21.475,21.475,0,0,1-4.011-3.508,8.264,8.264,0,0,1,.8-4.139s2.349,5.05,7.013,6.815S97.368,127.012,96.8,127.067Z" transform="translate(-67.509 -115.408)" opacity="0.303"/>
          </g>
          <path id="arm_right" data-name="arm right" d="M173.2-81.521a3.505,3.505,0,0,0,1.739-.445c.755-.319,1.825-1.078,3.483-1.736,4.263-1.691,11.829-4.584,11.829-4.584s2.109-4.345,4.35-5.613,5.134-1.683,6.845-.961.172,2.292,0,3.85.487,1.606-.69,2.381-.79-.29-4.019.718-15.3,12.261-17.347,12.75a12.615,12.615,0,0,1-4.039.335c-1.933.041-5.637,2.417-5.637,2.417l2.7-5.995Z" transform="translate(-127.591 118.119)" fill="#d6866f" opacity="0.999"/>
          <path id="shadow_right_arm" data-name="shadow right arm" d="M196.218-81.683s2.109-4.345,4.349-5.613-5.308,6.018-3.6,6.74c.424.179,2.9.094,0,3.093-.781.807-2.164,1.692-3.493,2.832-3.329,2.723-7,5.8-8.122,6.073a12.615,12.615,0,0,1-4.039.335,12.475,12.475,0,0,0-4.552,1.77,1.708,1.708,0,0,1,.748-1.77,37.031,37.031,0,0,0,3.569-3.3,11.22,11.22,0,0,1,2.427-3.583C188.372-78.91,196.218-81.683,196.218-81.683Z" transform="translate(-133.511 111.505)" opacity="0.298"/>
          <path id="Shirt" d="M18.309-3.358h.123L17.617-.739S19.13.321,21.763,1.776c1.164.643,2.78,1.118,4.376,1.944A6.537,6.537,0,0,1,28.148,5.08S26.872,1.344,27.59.757a10.13,10.13,0,0,0,3.023-4.789s5.1.143,6.712,0c.793-.071-.252,2.663-.879,4.789A16.436,16.436,0,0,1,34.817,4.47l-.976.61a13.779,13.779,0,0,0,1.169,3.478,6.165,6.165,0,0,1,0,4.484l.786,3.988a20.835,20.835,0,0,1-4.829-1.7,31.356,31.356,0,0,1-4.827-3.208s-3.32.12-5.192,1.619S18.521,18.4,18.521,18.4a22.806,22.806,0,0,0,2.425,2.343c1.49,1.251,3.535,2.661,3.535,2.661s.948.732,4.407.675,9.469,0,9.469,0,2.447,3.041,3.985,5.1.808,1.773,2.168,3.14,1.467.744,3.271,2.328,4.8,2.751,3.945,4.008-3.923,3.483-9.384,4.009-7.15-2.023-12.376-1.479-9.683,4.455-14.365,5.9-3.772.529-4.451-.561,1.152-2.087,1.735-3.8-.081-1.663.6-3.044S15.751,38.359,15.6,37.2s-2.716.279-2.716-2.164,2.374-4.575,2.716-7.606-.392-1.917-1.35-4.517-1.414-2.413-2.54-5.853S9.6,11.689,9.88,8.943s.2-2.765,1.582-5.338,3.509-4.163,3.8-4.742a7.059,7.059,0,0,1,.68-1.316A23.861,23.861,0,0,1,18.309-3.358Z" transform="translate(8.503 40.324)" fill="#fff"/>
          <g id="shadows_shirt" data-name="shadows shirt" transform="translate(18.388 41.351)">
            <path id="Path_9" data-name="Path 9" d="M-.11-21.5H-.922l-2.027-2.5Z" transform="translate(8.988 24.006)" opacity="0.148"/>
            <path id="Path_10" data-name="Path 10" d="M-.322-21.972l-.771.068-1.856-2.1Z" transform="translate(13.042 27.459)" opacity="0.148"/>
            <path id="Path_11" data-name="Path 11" d="M2.936-23.055s-.111.408-.582-.285A11.117,11.117,0,0,1,1.3-25.684c-.325-.854-.249-1.072-.249-1.072l-1.086-.777-1.247.31-1.669-1.233,1.092-.786.577.917,1.885-.065.771.857v1.179Z" transform="translate(17.697 32.51)" opacity="0.148"/>
            <rect id="Rectangle_13" data-name="Rectangle 13" width="0.45" height="0.751" rx="0.225" transform="translate(18.795 2.854)" opacity="0.148"/>
            <path id="Path_12" data-name="Path 12" d="M-2.748-.982c.06-.059.186-.2.277-.092A8.609,8.609,0,0,1-2.519.489l-.425,1.022V2.538a16.84,16.84,0,0,1-.374,1.735c-.13.313-.146-.482-.146-.482V1.511a2.506,2.506,0,0,0,.52-.977C-2.765-.089-2.808-.922-2.748-.982Z" transform="translate(22.79 1.999)" opacity="0.148"/>
            <path id="shadow_shirt_left" data-name="shadow shirt left" d="M29.967,114.627c-5.226.544-9.683,4.455-14.365,5.9s-3.772.529-4.451-.561,1.152-2.087,1.735-3.8-.081-1.664.6-3.044,2.267-1.317,2.118-2.478-2.716.279-2.716-2.164,2.374-4.575,2.716-7.606-.392-1.917-1.35-4.517-1.414-2.413-2.54-5.853S9.6,85.134,9.88,82.388a20.935,20.935,0,0,0,3.6,6.308c1.162,1.414,3.311,1.836,4.757,3.8,1.686,2.285,6.633,4.616,9.583,9.019,1.288,1.927,4.988-.873,6.58.923C35.872,106.695,31.682,114.449,29.967,114.627Z" transform="translate(-9.832 -74.521)" opacity="0.098"/>
          </g>
          <path id="Shadow_collar" data-name="Shadow collar" d="M1.644,14.653C2.667,14.285,3,14.18,3,14.18l-.833,2.628a7.689,7.689,0,0,1-.9-.7A4.895,4.895,0,0,1,.5,15.133,5.308,5.308,0,0,1,1.644,14.653Z" transform="translate(23.995 22.934)" opacity="0.246"/>
          <path id="hair" d="M-75.674-214.055s-12.076,5.29-19.81-2.628-6.775-9.684-5.479-12.269,1.305-4.448,7.336-6.813,7.737-.74,8.468-4.772-4.951-3.267-3.573-5.545,5-3.148,9.087-3.565,4.428,2.483,11.152,2.317,16.368-.432,20.727,6.793-12.264,11.478-12.133,13.2,3.919-.035,3.517,3.009-6.314,2.815-6.314,2.815l-12.485,6.236Z" transform="translate(103.632 249.687)" fill="#1f0909" opacity="0.996"/>
          <path id="face" d="M63.727-50.613a2,2,0,0,1-.929-.568,3.7,3.7,0,0,1-.483-1.828c-.091-1.164.427-2.138.992-2.127.367.033,1.763.11,1.55,2.811a1,1,0,0,0,.953,0,4.507,4.507,0,0,0,0-1.195l1.538-1.6a14.962,14.962,0,0,1,4.147-.745,17.771,17.771,0,0,1,4.4.6,7.045,7.045,0,0,1-.189,2.823A39.1,39.1,0,0,1,74.6-48.085a11.612,11.612,0,0,1-1.184,2.7A11.412,11.412,0,0,1,71.5-43.178s-.3.382,0,1.832a17.536,17.536,0,0,0,.64,2.362,14.464,14.464,0,0,0-2.7-1.657,35.27,35.27,0,0,1-4.576-2.147,32.588,32.588,0,0,1-3.268-2.018s.659-2.236,1.209-3.668A21.025,21.025,0,0,1,63.727-50.613Z" transform="translate(-35.47 84.626)" fill="#d18a76"/>
          <path id="headband" d="M3.517,4.932a13.865,13.865,0,0,1,4.168-.906,14.562,14.562,0,0,1,4.289.729,6.871,6.871,0,0,1,.754,1.925,6.143,6.143,0,0,1,0,2,14.443,14.443,0,0,0-5.4-.579,21.52,21.52,0,0,0-5.9,1.733A3.231,3.231,0,0,0,.779,9,1.557,1.557,0,0,0,0,8.676,5.262,5.262,0,0,1,3.517,4.932Z" transform="translate(27.823 20.88)" fill="#fff"/>
          <path id="headband_shadow" data-name="headband shadow" d="M3.517,4.932a13.865,13.865,0,0,1,4.168-.906c.157,0,.314,0,.51.013,1.346.06-1.138,1.4-2.838,2.821-.8.669-.941,1.85-1.278,1.956A23.626,23.626,0,0,0,1.429,9.831,3.231,3.231,0,0,0,.779,9,1.557,1.557,0,0,0,0,8.676,5.262,5.262,0,0,1,3.517,4.932Z" transform="translate(27.833 20.88)" opacity="0.147"/>
          <path id="Path_13" data-name="Path 13" d="M4.054-19.612A36.264,36.264,0,0,0,8.23-15.744a8.279,8.279,0,0,0,3.287,1.567,4.265,4.265,0,0,1-2.2,1.743C8.077-12.191,4.647-17.32,4.054-19.612Z" transform="translate(24.386 55.556)" opacity="0.147"/>
          <g id="Group_2276" data-name="Group 2276" transform="translate(56.966 11.372)">
            <g id="Group_2" data-name="Group 2" transform="translate(0 0)">
              <path id="Path_14" data-name="Path 14" d="M6.241,3.68c-.358,1.129-.8,2.426-1.287,3.71a29.322,29.322,0,0,1-2.269,4.5A13.19,13.19,0,0,1,6.5,11.17l.183,0a10.216,10.216,0,0,1,3.142.711A23.08,23.08,0,0,1,7.848,8.176c-.616-1.514-1.17-3.125-1.607-4.5M6.236,0A75.986,75.986,0,0,0,8.811,7.784a28.752,28.752,0,0,0,4.4,6.922S9.36,12.285,6.65,12.211,0,14.066,0,14.066A35.778,35.778,0,0,0,3.984,7.018C5.3,3.59,6.236,0,6.236,0Z" transform="translate(12.403 42.006) rotate(-149)" fill="#151515"/>
              <path id="Path_15" data-name="Path 15" d="M.424.1A6.669,6.669,0,0,1,1.587,0,6.49,6.49,0,0,1,2.735.14s.305,14.638.244,15.031-2.767.963-2.945,0S.424.1.424.1Z" transform="matrix(0.875, 0.485, -0.485, 0.875, 7.612, 34.774)" fill="#0a3739"/>
              <path id="Line_9" data-name="Line 9" d="M-.277,21.828l-.147-.092,13.686-22,.147.092Z" transform="translate(13.068 6.576)" fill="#fff"/>
              <path id="Line_10" data-name="Line 10" d="M-.278,21.455l-.147-.091L12.914-.262l.147.091Z" transform="translate(14.802 7.295)" fill="#fff"/>
              <path id="Line_11" data-name="Line 11" d="M-.278,21.108l-.147-.091L12.741-.263l.147.091Z" transform="translate(16.36 8.162)" fill="#fff"/>
              <path id="Line_12" data-name="Line 12" d="M-.278,20.617l-.147-.091L12.394-.262l.147.091Z" transform="translate(17.4 9.693)" fill="#fff"/>
              <path id="Line_13" data-name="Line 13" d="M-.278,19.218l-.147-.091L11.545-.263l.147.091Z" transform="translate(19.116 11.079)" fill="#fff"/>
              <path id="Line_14" data-name="Line 14" d="M-.278,17.179l-.147-.091L10.324-.263l.147.091Z" transform="translate(20.856 12.812)" fill="#fff"/>
              <path id="Line_15" data-name="Line 15" d="M-.276,14.176l-.146-.093L8.673-.268l.146.093Z" transform="translate(22.681 15.414)" fill="#fff"/>
              <path id="Line_16" data-name="Line 16" d="M-.274,10.043l-.145-.094L6.219-.272l.145.094Z" transform="translate(24.962 18.363)" fill="#fff"/>
              <path id="Line_17" data-name="Line 17" d="M-.277,21.828l-.147-.092,13.686-22,.147.092Z" transform="translate(11.682 5.909)" fill="#fff"/>
              <path id="Line_18" data-name="Line 18" d="M-.278,21.505l-.147-.091L13.025-.264l.147.091Z" transform="translate(10.879 5.016)" fill="#fff"/>
              <path id="Line_19" data-name="Line 19" d="M-.278,20.639l-.147-.091L12.506-.264l.147.091Z" transform="translate(9.839 5.016)" fill="#fff"/>
              <path id="Line_20" data-name="Line 20" d="M-.278,19.3l-.148-.091L11.541-.262l.148.091Z" transform="translate(9.418 4.668)" fill="#fff"/>
              <path id="Line_21" data-name="Line 21" d="M-.278,17.481l-.147-.091L10.489-.263l.147.091Z" transform="translate(8.738 5.016)" fill="#fff"/>
              <path id="Line_22" data-name="Line 22" d="M-.278,14.974l-.147-.091L8.929-.263l.147.091Z" transform="translate(8.392 5.708)" fill="#fff"/>
              <path id="Line_23" data-name="Line 23" d="M-.278,11.549l-.147-.091L6.851-.264,7-.172Z" transform="translate(8.564 6.575)" fill="#fff"/>
              <path id="Line_24" data-name="Line 24" d="M18.862,11.166-.257-.28l.089-.149L18.95,11.018Z" transform="translate(10.789 11.376)" fill="#fff"/>
              <path id="Line_25" data-name="Line 25" d="M18.455,10.806-.255-.281-.167-.43l18.71,11.087Z" transform="translate(10.156 12.949)" fill="#fff"/>
              <path id="Line_26" data-name="Line 26" d="M18.28,10.807-.257-.28l.089-.149L18.369,10.658Z" transform="translate(9.465 14.161)" fill="#fff"/>
              <path id="Line_27" data-name="Line 27" d="M17.939,10.285-.251-.283l.087-.15,18.19,10.567Z" transform="translate(8.941 15.896)" fill="#fff"/>
              <path id="Line_28" data-name="Line 28" d="M17.417,10.113-.254-.282l.088-.149L17.5,9.963Z" transform="translate(8.423 17.281)" fill="#fff"/>
              <path id="Line_29" data-name="Line 29" d="M16.207,9.245-.251-.283l.087-.15L16.294,9.1Z" transform="translate(8.42 18.842)" fill="#fff"/>
              <path id="Line_30" data-name="Line 30" d="M15.341,8.725-.25-.283l.087-.15L15.428,8.575Z" transform="translate(8.247 20.228)" fill="#fff"/>
              <path id="Line_31" data-name="Line 31" d="M14.124,8.207-.254-.281l.088-.149L14.213,8.058Z" transform="translate(8.25 21.612)" fill="#fff"/>
              <path id="Line_32" data-name="Line 32" d="M18.5,10.955-.257-.28l.089-.149L18.586,10.806Z" transform="translate(11.846 10.375)" fill="#fff"/>
              <path id="Line_33" data-name="Line 33" d="M18.224,10.764-.256-.28l.089-.149L18.313,10.615Z" transform="translate(12.638 9.18)" fill="#fff"/>
              <path id="Line_34" data-name="Line 34" d="M17.491,10.452-.259-.28l.09-.148L17.58,10.3Z" transform="translate(13.718 8.106)" fill="#fff"/>
              <path id="Line_35" data-name="Line 35" d="M16.6,9.65-.254-.282l.088-.149L16.685,9.5Z" transform="translate(14.785 7.35)" fill="#fff"/>
              <path id="Line_36" data-name="Line 36" d="M15.1,8.986-.258-.28l.089-.148L15.194,8.838Z" transform="translate(16.278 6.627)" fill="#fff"/>
              <path id="Line_37" data-name="Line 37" d="M13.843,8.307-.26-.279l.09-.148,14.1,8.586Z" transform="translate(17.539 5.92)" fill="#fff"/>
              <path id="Line_38" data-name="Line 38" d="M12.475,7.348-.257-.28l.089-.149L12.564,7.2Z" transform="translate(18.734 5.321)" fill="#fff"/>
              <path id="Line_39" data-name="Line 39" d="M10.313,5.953-.254-.281l.088-.149L10.4,5.8Z" transform="translate(20.55 5.156)" fill="#fff"/>
              <path id="Line_40" data-name="Line 40" d="M7.287,4.046-.249-.283l.086-.15L7.373,3.9Z" transform="translate(22.538 5.159)" fill="#fff"/>
              <path id="Line_41" data-name="Line 41" d="M11.612,6.743-.255-.281-.166-.43,11.7,6.594Z" transform="translate(8.857 23.249)" fill="#fff"/>
              <path id="Line_42" data-name="Line 42" d="M9.093,5.467-.262-.278l.091-.148L9.184,5.32Z" transform="translate(9.469 24.87)" fill="#fff"/>
              <path id="Ellipse_1" data-name="Ellipse 1" d="M11.347,1.039c-5.684,0-10.308,5.673-10.308,12.646S5.663,26.332,11.347,26.332s10.308-5.673,10.308-12.646S17.031,1.039,11.347,1.039m0-1.039c6.267,0,11.347,6.127,11.347,13.686s-5.08,13.686-11.347,13.686S0,21.244,0,13.686,5.08,0,11.347,0Z" transform="translate(16.883 0) rotate(30)" fill="#151515"/>
            </g>
            <ellipse id="Ellipse_2" data-name="Ellipse 2" cx="3.754" cy="3.754" rx="3.754" ry="3.754" transform="translate(6.64 21.99)" fill="#c1f896"/>
            <path id="Path_17" data-name="Path 17" d="M-1.275,2.064A.225.225,0,0,1-1.492,1.9a.225.225,0,0,1,.158-.276A3.645,3.645,0,0,0,.381.581,2.953,2.953,0,0,0,.725-1.243.225.225,0,0,1,.917-1.5a.225.225,0,0,1,.254.191A3.36,3.36,0,0,1,.747.842,4.036,4.036,0,0,1-1.216,2.056.226.226,0,0,1-1.275,2.064Z" transform="translate(8.546 24.127)" fill="#fff"/>
            <path id="Path_18" data-name="Path 18" d="M.225,3.563a.225.225,0,0,1-.059-.443A3.645,3.645,0,0,0,1.881,2.08,2.953,2.953,0,0,0,2.226.257.225.225,0,0,1,2.672.193a3.36,3.36,0,0,1-.424,2.148A4.036,4.036,0,0,1,.284,3.555.226.226,0,0,1,.225,3.563Z" transform="translate(13.496 28.777) rotate(180)" fill="#fff"/>
            <path id="Path_19" data-name="Path 19" d="M3.754,6.567c.864.9.057,1.977.634,3.145S7.216,10.231,6.7,10.9A3.754,3.754,0,0,1,0,8.57,3.767,3.767,0,0,1,.932,6.095C1.592,5.324,2.89,5.662,3.754,6.567Z" transform="translate(6.644 17.167)" opacity="0.146"/>
          </g>
        </g>
        <g id="Group_1186" data-name="Group 1186" transform="translate(150.9 0)">
          <g id="Bottom-2" data-name="Bottom" transform="translate(0 67.231)">
            <path id="Path_8-2" data-name="Path 8" d="M30.2,8.613C43.773,7.707,51.753,6.437,51.753,3.7S39.992-.594,25.132.214c-7.043.383-11.7.927-15.874,1.334C4.675,1.994.905,2.334,0,3.447,0,5.41,6.151,7.919,14.692,8.727,18.05,9.044,26.185,8.613,30.2,8.613Z" transform="translate(97.529 74.732) rotate(-171)" opacity="0.153"/>
            <path id="legs-2" data-name="legs" d="M14.944-45.373.92-51.645-20.516-53.55a36.089,36.089,0,0,0-2.835,3.709c-1.265,1.87-2.776,4.556-5.062,7.518-1.972,2.184-5.977,4-8.122,6.432-3.674,4.163-6.654,8.386-10.139,12.038-1.229,1.288-2.746,1.926-3.839,3.035-5.138,2.594-6.5,3.678-7.2,4.651-2.576,3.6-.379,5.307-.379,5.307A4.663,4.663,0,0,0-52.945-9.3c1.619-.446,4.518-3.256,5.955-5.194,2.389-.908,4.022-.993,5.479-1.913,1.109-1.6,1.116-3.857,1.861-5.173a6.537,6.537,0,0,1,3.114-2.884,46.873,46.873,0,0,0,6.419-3.4c2.213-1.567,1.3-2.385,4.979-5.12s3.881-2.393,9.726-5.822,9.753-7.477,13.654-7.9c.787-.084,2.507,5.653,4.448,10.164S7.152-25.38,7.152-25.38s-.232.346,1.062,9.77c.436,3.176,2.049,7.531,2.668,11.73.526,3.564,1.089,5,.69,9.984.282,3.663.758,6.215.758,6.215s4.367.753,5.7,0c1.589-.831,1.645-2.9,2.243-3.253,2.106-1.24,2.96-1.159,3.4-1.662s.505-2.875-.959-4.308A7.132,7.132,0,0,0,18.8,1.033c-.923-.48-1.019-.876-1.019-.876s.948-12.163.251-18.259a87.629,87.629,0,0,0-3.09-13.653,64.264,64.264,0,0,0,.472-7.068A49.975,49.975,0,0,0,14.944-45.373Z" transform="translate(58.962 54.978)" fill="#d6866f"/>
            <path id="sock_left-2" data-name="sock left" d="M-58.958,230.166a44.9,44.9,0,0,1,.932,4.449c.319,2.163.652,3.542.778,5.449a30.9,30.9,0,0,1-.088,4.535c.282,3.663.758,6.215.758,6.215s4.367.753,5.7,0c1.589-.831,1.645-2.9,2.243-3.253,2.106-1.24,2.96-1.159,3.4-1.662s.505-2.875-.959-4.308a7.132,7.132,0,0,0-3.912-2.063c-.923-.48-.954-.757-.954-.757s.324-5.1.421-10.333c-.085-.825-3.144-.472-4.581-.182S-59.069,229.384-58.958,230.166Z" transform="translate(127.869 -183.517)" fill="#fff"/>
            <g id="Stripes_left-2" data-name="Stripes left" transform="translate(69.223 46.197)">
              <path id="Path_4-2" data-name="Path 4" d="M7.406-.309a16.746,16.746,0,0,0-4.29.2A12.929,12.929,0,0,0-.572,1.353l.2.875A11.612,11.612,0,0,1,3.241.7,13.885,13.885,0,0,1,7.379.609Z" transform="translate(0.572 0.366)" fill="#b3e689"/>
              <path id="Path_5-2" data-name="Path 5" d="M7.723-.319a16.009,16.009,0,0,0-4.186.2A10.97,10.97,0,0,0,.109,1.237l.167.879A10.124,10.124,0,0,1,3.662.692,13.187,13.187,0,0,1,7.7.6Z" transform="translate(0.202 1.9)" fill="#b3e689"/>
            </g>
            <path id="shoe_left-2" data-name="shoe left" d="M-58.962,295.617c.282,3.663.758,6.215.758,6.215s4.367.753,5.7,0c1.589-.831,1.645-2.9,2.243-3.253,2.106-1.24,2.96-1.159,3.4-1.662s.505-2.875-.959-4.308a7.132,7.132,0,0,0-3.912-2.063c-.923-.48-1.019-.876-1.019-.876a2.52,2.52,0,0,0-2.369-1.523c-1.662.139-1.233,2.1-1.6,2.4s-.337,0-.891,0a4.734,4.734,0,0,0-1.355.315S-58.562,290.63-58.962,295.617Z" transform="translate(129.495 -234.534)" fill="#898383"/>
            <path id="shoe_sole_left-2" data-name="shoe sole left" d="M-56.348,315.331c-.535.729-.129.827-.782,1.343a4.93,4.93,0,0,1-1.831.723l.466,3.253s4.367.753,5.7,0c1.589-.831,1.645-2.9,2.243-3.253,2.106-1.24,2.96-1.16,3.4-1.662s.505-2.875-.959-4.308a4.769,4.769,0,0,0-3.313-1.07c-1.041.076-3.567,3.4-3.567,3.4A17.974,17.974,0,0,0-56.348,315.331Z" transform="translate(129.787 -253.353)" fill="#08141c"/>
            <path id="shoe_sole_2_left-2" data-name="shoe sole 2 left" d="M.591,341.125c-.535.729-.129.827-.782,1.343a4.929,4.929,0,0,1-1.831.723l.466,3.253a1.96,1.96,0,0,1,1.22-1.779c1.589-.831,1.447-.789,1.632-1.231s.014-3.225-.534-2.534C.721,340.952.654,341.039.591,341.125Z" transform="translate(72.848 -279.148)" fill="#fff"/>
            <path id="shadow_left_leg-2" data-name="shadow left leg" d="M-14.735-15.463l-6.731-2.787s-.605,1.162-.405,4.2a65.411,65.411,0,0,0,1.49,8.975c.69,3.415,1.374,2.778,1.2,4.977s-2.522,1.7-2.685,3.828,1.766,4.588,2.743,7.18.822,2.577,1.859,5.362S-14.735,28.6-14.735,28.6a2.36,2.36,0,0,1,1.574.1A3.924,3.924,0,0,1-11.9,30.067s.948-12.163.251-18.259a87.63,87.63,0,0,0-3.09-13.653,64.265,64.265,0,0,0,.472-7.068A49.975,49.975,0,0,0-14.735-15.463Z" transform="translate(88.641 25.068)" opacity="0.3"/>
            <path id="sock_right-2" data-name="sock right" d="M340.144,86.653c-3.387,3.985-7.1,8.482-7.194,8.572-1.14,1.079-2.517,1.7-3.531,2.73-5.138,2.594-6.5,3.678-7.2,4.651-2.576,3.6-.379,5.307-.379,5.307a4.663,4.663,0,0,0,5.143,1.554c1.619-.446,4.518-3.256,5.955-5.194,2.389-.908,4.022-.993,5.479-1.913a11.751,11.751,0,0,0,1.338-3.77,6.052,6.052,0,0,1,.523-1.4A6.538,6.538,0,0,1,343.4,94.3s1.047-.458,2.414-1.132c.548-.27-3.247-.564-4.664-2.194S340.3,86.319,340.144,86.653Z" transform="translate(-320.971 -63.794)" fill="#fff"/>
            <g id="Stripes_right-2" data-name="Stripes right" transform="translate(15.338 24.176)">
              <path id="Path_6-2" data-name="Path 6" d="M.322,1.468A5.49,5.49,0,0,0,3.9,1.975,13.3,13.3,0,0,0,7.217.845S7.169.642,7.129.43,7.057,0,7.057,0A12.476,12.476,0,0,1,3.779,1.165,5.815,5.815,0,0,1,0,.431Z" transform="matrix(0.545, 0.839, -0.839, 0.545, 1.747, 1.341)" fill="#b3e689"/>
              <path id="Path_7-2" data-name="Path 7" d="M.277,1.681a7.131,7.131,0,0,0,4.011.557A7.964,7.964,0,0,0,7.446.879s0-.209.029-.429S7.541,0,7.541,0A10,10,0,0,1,4.163,1.428,7.673,7.673,0,0,1,0,.766Z" transform="matrix(0.545, 0.839, -0.839, 0.545, 3.01, 0)" fill="#b3e689"/>
            </g>
            <path id="shoe_right-2" data-name="shoe right" d="M372.768,140.892c.057.183-2.746,1.926-3.84,3.035-5.138,2.594-6.5,3.678-7.2,4.651-2.576,3.6-.379,5.307-.379,5.307a4.663,4.663,0,0,0,5.143,1.554c1.619-.446,4.518-3.256,5.955-5.194,2.389-.908,4.022-.993,5.479-1.913a13.1,13.1,0,0,0,1.405-4.011c.066-.231-.526-.218-2.594,1.3a2.6,2.6,0,0,1-1.8.13c-.157-.092.169-.971,0-1.43s-.912-1.083-1.528-2.065A6.235,6.235,0,0,1,372.768,140.892Z" transform="translate(-360.481 -109.767)" fill="#898383"/>
            <path id="shadow_right_leg-2" data-name="shadow right leg" d="M185.118-29.821a14.055,14.055,0,0,0-6.67,1.714c-3.678,1.9-3.6,2.32-8.043,5.885s-8.149,6.993-9.749,8.373-4.322.894-7.339,4.284S151.471-3.6,148.584-.29s-4.576,1.87-6.816,3.98c-1.846,1.739-.419,2.915-2.142,4.3s-4.749,1.249-4.749,1.249A4.663,4.663,0,0,0,140.02,10.8c1.619-.446,4.518-3.256,5.955-5.194,2.389-.908,4.023-.993,5.479-1.913,1.109-1.6,1.116-3.857,1.861-5.173a6.537,6.537,0,0,1,3.114-2.884,46.874,46.874,0,0,0,6.419-3.4c2.213-1.567,1.3-2.385,4.979-5.12s3.881-2.393,9.726-5.822c3.957-2.322,6.949-4.881,9.76-6.469,0,0-.742-1.9-1.24-2.936A13.717,13.717,0,0,0,185.118-29.821Z" transform="translate(-134.004 34.876)" opacity="0.296"/>
            <path id="pants-2" data-name="pants" d="M47.966-29.256c1.1-1.568.743-11.4.743-11.4L32.679-44.149,12.194-47.482S6.566-42.506,6.16-40.657s.669,2.257,3.022,4.979,4.265,6.129,6.389,5.911,13.053-9.371,14.337-9.508c0,0,3.212,11.132,4.681,12.253S46.869-27.688,47.966-29.256Z" transform="translate(27.202 47.482)" fill="#b3e689"/>
          </g>
          <g id="arm_left-3" data-name="arm left" transform="translate(35.75 41.889)">
            <path id="arm_left-4" data-name="arm left" d="M95.214,103.192a23.887,23.887,0,0,1-4.819,3.53,15.314,15.314,0,0,1-5,1.473l-2.606.66-7.576.835s-1.611-.949-2.747-1.494-3.173-.1-3.994.256S67.089,110.4,67.9,112s1.38,2.679,2.66,2.9A22.8,22.8,0,0,0,73.2,115c1.162.114,1.206.017,3.6.107s5.984.255,5.984.255,7.008-.086,11.557,0c1.528.029,3.229-1.344,4.55-2.238a21.84,21.84,0,0,0,4.079-3.567s.295-3.546-1.6-5.171S95.214,103.192,95.214,103.192Z" transform="translate(-67.506 -103.139)" fill="#d6866f" opacity="0.998"/>
            <path id="wrist_band-2" data-name="wrist band" d="M197.237,140.568l-7.576.835a6.3,6.3,0,0,1,1.265,5.424l6.311.245,1.064-.011a6.067,6.067,0,0,0-1.064-6.493Z" transform="translate(-181.956 -134.853)" fill="#fff"/>
            <path id="shadow_left_arm-2" data-name="shadow left arm" d="M67.523,127.228c1.162.114,1.206.017,3.6.107s5.984.255,5.984.255,7.008-.086,11.557,0c1.528.029,3.229-1.344,4.55-2.238a21.839,21.839,0,0,0,4.079-3.567,8.4,8.4,0,0,0-.815-4.209s-2.389,5.136-7.131,6.93S66.947,127.172,67.523,127.228Z" transform="translate(-61.829 -115.371)" opacity="0.303"/>
          </g>
          <path id="arm_right-2" data-name="arm right" d="M199.258-81.29a3.564,3.564,0,0,1-1.769-.452c-.768-.324-1.856-1.1-3.542-1.766-4.335-1.72-12.03-4.662-12.03-4.662s-2.145-4.419-4.423-5.708-5.221-1.712-6.961-.977-.175,2.331,0,3.915-.5,1.634.7,2.422.8-.3,4.087.73,15.56,12.469,17.641,12.966a12.829,12.829,0,0,0,4.107.341c1.966.042,5.732,2.458,5.732,2.458l-2.745-6.1Z" transform="translate(-147.178 106.815)" fill="#d6866f" opacity="0.999"/>
          <path id="shadow_right_arm-2" data-name="shadow right arm" d="M181.583-81.585S179.439-86,177.16-87.293s5.4,6.12,3.658,6.854c-.432.182-2.953.1,0,3.145.794.821,2.2,1.72,3.552,2.88,3.385,2.769,7.115,5.9,8.259,6.176a12.829,12.829,0,0,0,4.107.341c1.28.027,3.323,1.061,4.629,1.8a1.737,1.737,0,0,0-.761-1.8,37.66,37.66,0,0,1-3.629-3.353,11.411,11.411,0,0,0-2.468-3.644C189.562-78.766,181.583-81.585,181.583-81.585Z" transform="translate(-146.844 100.231)" opacity="0.298"/>
          <path id="Shirt-2" data-name="Shirt" d="M43.968-3.346h-.125l.83,2.663S43.133.395,40.456,1.874c-1.183.654-2.827,1.137-4.45,1.977a6.648,6.648,0,0,0-2.043,1.384s1.3-3.8.567-4.4a10.3,10.3,0,0,1-3.075-4.87s-5.19.145-6.826,0c-.807-.072.256,2.708.894,4.87a16.715,16.715,0,0,0,1.657,3.777l.993.62a14.012,14.012,0,0,1-1.189,3.537,6.269,6.269,0,0,0,0,4.56l-.8,4.056A21.188,21.188,0,0,0,31.1,15.66,31.888,31.888,0,0,0,36.006,12.4s3.377.122,5.28,1.647,2.466,4.731,2.466,4.731a23.193,23.193,0,0,1-2.466,2.383c-1.515,1.272-3.595,2.707-3.595,2.707s-.964.745-4.481.686-9.63,0-9.63,0-2.488,3.092-4.052,5.188-.822,1.8-2.2,3.194S15.832,33.689,14,35.3s-4.882,2.8-4.012,4.076,3.989,3.542,9.543,4.076,7.272-2.057,12.586-1.5,9.847,4.53,14.609,5.995,3.836.538,4.526-.57-1.171-2.122-1.764-3.862.083-1.692-.608-3.1-2.306-1.34-2.154-2.52,2.762.284,2.762-2.2-2.414-4.653-2.762-7.735.4-1.949,1.373-4.594,1.438-2.454,2.583-5.952,2.147-5.46,1.863-8.253-.207-2.812-1.609-5.428S47.363-.5,47.067-1.088a7.178,7.178,0,0,0-.691-1.339A24.265,24.265,0,0,0,43.968-3.346Z" transform="translate(27.45 29.557)" fill="#fff"/>
          <g id="shadows_shirt-2" data-name="shadows shirt" transform="translate(54.74 30.72)">
            <path id="Path_9-2" data-name="Path 9" d="M-2.949-21.46h.825l2.061-2.546Z" transform="translate(19.22 24.006)" opacity="0.148"/>
            <path id="Path_10-2" data-name="Path 10" d="M-2.949-21.937l.784.069,1.887-2.138Z" transform="translate(15.312 27.518)" opacity="0.148"/>
            <path id="Path_11-2" data-name="Path 11" d="M-2.949-22.95s.113.415.592-.29a11.305,11.305,0,0,0,1.069-2.383c.331-.868.253-1.09.253-1.09l1.1-.79,1.268.315,1.7-1.254-1.11-.8-.587.932-1.917-.066-.784.871v1.2Z" transform="translate(7.266 32.565)" opacity="0.148"/>
            <rect id="Rectangle_13-2" data-name="Rectangle 13" width="0.458" height="0.763" rx="0.229" transform="translate(5.728 2.902)" opacity="0.148"/>
            <path id="Path_12-2" data-name="Path 12" d="M-3.152-.979c-.061-.06-.189-.207-.282-.094A8.755,8.755,0,0,0-3.384.516l.432,1.039V2.6a17.125,17.125,0,0,0,.38,1.764c.132.318.149-.491.149-.491V1.555A2.549,2.549,0,0,1-2.952.562C-3.134-.072-3.091-.919-3.152-.979Z" transform="translate(8.069 2.014)" opacity="0.148"/>
            <path id="shadow_shirt_left-2" data-name="shadow shirt left" d="M14.656,115.173c5.314.553,9.847,4.53,14.609,5.995s3.836.538,4.526-.57-1.171-2.122-1.764-3.861.083-1.692-.608-3.1-2.306-1.34-2.154-2.52,2.762.284,2.762-2.2-2.414-4.653-2.762-7.735.4-1.949,1.373-4.594,1.438-2.454,2.583-5.952,2.147-5.46,1.863-8.253A21.289,21.289,0,0,1,31.418,88.8c-1.181,1.437-3.367,1.867-4.838,3.861-1.714,2.324-6.745,4.694-9.745,9.172-1.31,1.96-5.073-.887-6.691.939C8.65,107.107,12.911,114.992,14.656,115.173Z" transform="translate(-9.832 -74.388)" opacity="0.098"/>
          </g>
          <path id="Shadow_collar-2" data-name="Shadow collar" d="M1.877,14.661C.836,14.287.5,14.18.5,14.18l.847,2.672a7.819,7.819,0,0,0,.913-.712,4.978,4.978,0,0,0,.787-.991A5.4,5.4,0,0,0,1.877,14.661Z" transform="translate(70.787 11.987)" opacity="0.246"/>
          <path id="hair-2" data-name="hair" d="M-91.352-231.72s4.423,2.667,7.255-1.325,2.481-4.883,2.007-6.187,2.209-3.382,0-4.574-2.834-.373-3.1-2.406-3.211-3.244-4.707-3.455-1.622,1.252-4.084,1.168-5.995-.218-7.591,3.425,4.492,5.788,4.444,6.656-1.435-.018-1.288,1.517,2.313,1.419,2.313,1.419l4.572,3.144Z" transform="translate(156.581 258.35)" fill="#1f0909" opacity="0.996"/>
          <path id="face-2" data-name="face" d="M74.021-50.524a2.036,2.036,0,0,0,.945-.577,3.759,3.759,0,0,0,.491-1.859c.092-1.184-.434-2.174-1.009-2.163-.373.034-1.793.111-1.576,2.859a1.019,1.019,0,0,1-.969,0,4.584,4.584,0,0,1,0-1.215l-1.564-1.632a15.216,15.216,0,0,0-4.218-.757,18.071,18.071,0,0,0-4.475.609,7.164,7.164,0,0,0,.192,2.871,39.759,39.759,0,0,0,1.128,4.436,11.81,11.81,0,0,0,1.2,2.741,11.6,11.6,0,0,0,1.951,2.25s.3.388,0,1.863a17.835,17.835,0,0,1-.651,2.4,14.708,14.708,0,0,1,2.749-1.685,35.866,35.866,0,0,0,4.653-2.184A33.139,33.139,0,0,0,76.2-44.619s-.67-2.274-1.23-3.73A21.383,21.383,0,0,0,74.021-50.524Z" transform="translate(-4.059 73.479)" fill="#d18a76"/>
          <path id="headband-2" data-name="headband" d="M9.453,4.947a14.1,14.1,0,0,0-4.239-.922,14.809,14.809,0,0,0-4.361.741A6.987,6.987,0,0,0,.085,6.724a6.247,6.247,0,0,0,0,2.031,14.687,14.687,0,0,1,5.5-.588,21.884,21.884,0,0,1,5.995,1.762,3.286,3.286,0,0,1,.661-.849,1.583,1.583,0,0,1,.793-.325A5.351,5.351,0,0,0,9.453,4.947Z" transform="translate(57.364 9.597)" fill="#fff"/>
          <path id="headband_shadow-2" data-name="headband shadow" d="M5.149,4.947A14.1,14.1,0,0,0,.91,4.025c-.16,0-.319,0-.519.013C-.977,4.1,1.549,5.462,3.277,6.908c.814.68.957,1.881,1.3,1.99a24.026,24.026,0,0,1,2.7,1.032,3.286,3.286,0,0,1,.661-.849,1.583,1.583,0,0,1,.793-.325A5.351,5.351,0,0,0,5.149,4.947Z" transform="translate(61.668 9.597)" opacity="0.147"/>
          <path id="Path_13-2" data-name="Path 13" d="M11.643-19.612A36.878,36.878,0,0,1,7.4-15.679a8.419,8.419,0,0,1-3.343,1.594,4.337,4.337,0,0,0,2.239,1.773C7.553-12.065,11.041-17.281,11.643-19.612Z" transform="translate(58.132 44.589)" opacity="0.147"/>
          <g id="Group_2277" data-name="Group 2277" transform="translate(4.273 0)">
            <g id="Group_2-2" data-name="Group 2" transform="translate(0 0)">
              <path id="Path_14-2" data-name="Path 14" d="M6.241,11.026C5.884,9.9,5.446,8.6,4.954,7.316a29.322,29.322,0,0,0-2.269-4.5A13.19,13.19,0,0,0,6.5,3.536l.183,0a10.216,10.216,0,0,0,3.142-.711A23.079,23.079,0,0,0,7.848,6.53c-.616,1.514-1.17,3.125-1.607,4.5m-.005,3.68A75.986,75.986,0,0,1,8.811,6.922,28.752,28.752,0,0,1,13.212,0S9.36,2.42,6.65,2.494,0,.639,0,.639A35.778,35.778,0,0,1,3.984,7.688C5.3,11.115,6.236,14.706,6.236,14.706Z" transform="translate(16.559 29.401) rotate(-31)" fill="#151515"/>
              <path id="Path_15-2" data-name="Path 15" d="M.424,15.6a6.669,6.669,0,0,0,1.162.1,6.49,6.49,0,0,0,1.149-.139S3.041.922,2.979.529.212-.434.034.529.424,15.6.424,15.6Z" transform="matrix(-0.875, 0.485, -0.485, -0.875, 36.537, 48.506)" fill="#0a3739"/>
              <path id="Line_9-2" data-name="Line 9" d="M13.261,21.828l.147-.092L-.277-.264l-.147.092Z" transform="translate(10.484 6.576)" fill="#fff"/>
              <path id="Line_10-2" data-name="Line 10" d="M12.914,21.455l.147-.091L-.278-.262l-.147.091Z" transform="translate(9.099 7.295)" fill="#fff"/>
              <path id="Line_11-2" data-name="Line 11" d="M12.741,21.108l.147-.091L-.278-.263l-.147.091Z" transform="translate(7.713 8.162)" fill="#fff"/>
              <path id="Line_12-2" data-name="Line 12" d="M12.394,20.617l.147-.091L-.278-.262l-.147.091Z" transform="translate(7.021 9.693)" fill="#fff"/>
              <path id="Line_13-2" data-name="Line 13" d="M11.545,19.218l.147-.091L-.278-.263l-.147.091Z" transform="translate(6.154 11.079)" fill="#fff"/>
              <path id="Line_14-2" data-name="Line 14" d="M10.324,17.179l.147-.091L-.278-.263l-.147.091Z" transform="translate(5.634 12.812)" fill="#fff"/>
              <path id="Line_15-2" data-name="Line 15" d="M8.673,14.176l.146-.093L-.276-.268l-.146.093Z" transform="translate(5.459 15.414)" fill="#fff"/>
              <path id="Line_16-2" data-name="Line 16" d="M6.219,10.043l.145-.094L-.274-.272l-.145.094Z" transform="translate(5.629 18.363)" fill="#fff"/>
              <path id="Line_17-2" data-name="Line 17" d="M13.261,21.828l.147-.092L-.277-.264l-.147.092Z" transform="translate(11.87 5.909)" fill="#fff"/>
              <path id="Line_18-2" data-name="Line 18" d="M13.025,21.505l.147-.091L-.278-.264l-.147.091Z" transform="translate(12.91 5.016)" fill="#fff"/>
              <path id="Line_19-2" data-name="Line 19" d="M12.506,20.639l.147-.091L-.278-.264l-.147.091Z" transform="translate(14.469 5.016)" fill="#fff"/>
              <path id="Line_20-2" data-name="Line 20" d="M11.541,19.3l.148-.091L-.278-.262l-.148.091Z" transform="translate(15.856 4.668)" fill="#fff"/>
              <path id="Line_21-2" data-name="Line 21" d="M10.489,17.481l.147-.091L-.278-.263l-.147.091Z" transform="translate(17.588 5.016)" fill="#fff"/>
              <path id="Line_22-2" data-name="Line 22" d="M8.929,14.974l.147-.091L-.278-.263l-.147.091Z" transform="translate(19.493 5.708)" fill="#fff"/>
              <path id="Line_23-2" data-name="Line 23" d="M6.851,11.549,7,11.458-.278-.264l-.147.091Z" transform="translate(21.399 6.575)" fill="#fff"/>
              <path id="Line_24-2" data-name="Line 24" d="M-.168,11.166,18.95-.28l-.089-.149L-.257,11.018Z" transform="translate(7.054 11.376)" fill="#fff"/>
              <path id="Line_25-2" data-name="Line 25" d="M-.167,10.806,18.543-.281,18.455-.43-.255,10.657Z" transform="translate(8.092 12.949)" fill="#fff"/>
              <path id="Line_26-2" data-name="Line 26" d="M-.168,10.807,18.369-.28,18.28-.429-.257,10.658Z" transform="translate(8.96 14.161)" fill="#fff"/>
              <path id="Line_27-2" data-name="Line 27" d="M-.164,10.285,18.026-.283l-.087-.15L-.251,10.135Z" transform="translate(9.821 15.896)" fill="#fff"/>
              <path id="Line_28-2" data-name="Line 28" d="M-.166,10.113,17.5-.282l-.088-.149L-.254,9.963Z" transform="translate(10.863 17.281)" fill="#fff"/>
              <path id="Line_29-2" data-name="Line 29" d="M-.164,9.245,16.294-.283l-.087-.15L-.251,9.1Z" transform="translate(12.073 18.842)" fill="#fff"/>
              <path id="Line_30-2" data-name="Line 30" d="M-.163,8.725,15.428-.283l-.087-.15L-.25,8.575Z" transform="translate(13.112 20.228)" fill="#fff"/>
              <path id="Line_31-2" data-name="Line 31" d="M-.166,8.207,14.213-.281l-.088-.149L-.254,8.058Z" transform="translate(14.328 21.612)" fill="#fff"/>
              <path id="Line_32-2" data-name="Line 32" d="M-.168,10.955,18.586-.28,18.5-.429-.257,10.806Z" transform="translate(6.361 10.375)" fill="#fff"/>
              <path id="Line_33-2" data-name="Line 33" d="M-.168,10.764,18.313-.28l-.089-.149L-.256,10.615Z" transform="translate(5.841 9.18)" fill="#fff"/>
              <path id="Line_34-2" data-name="Line 34" d="M-.169,10.452,17.58-.28l-.09-.148L-.259,10.3Z" transform="translate(5.497 8.106)" fill="#fff"/>
              <path id="Line_35-2" data-name="Line 35" d="M-.166,9.65,16.685-.282,16.6-.431-.254,9.5Z" transform="translate(5.319 7.35)" fill="#fff"/>
              <path id="Line_36-2" data-name="Line 36" d="M-.169,8.986,15.194-.28,15.1-.428-.258,8.838Z" transform="translate(5.323 6.627)" fill="#fff"/>
              <path id="Line_37-2" data-name="Line 37" d="M-.17,8.307l14.1-8.586-.09-.148L-.26,8.159Z" transform="translate(5.325 5.92)" fill="#fff"/>
              <path id="Line_38-2" data-name="Line 38" d="M-.168,7.348,12.564-.28l-.089-.149L-.257,7.2Z" transform="translate(5.495 5.321)" fill="#fff"/>
              <path id="Line_39-2" data-name="Line 39" d="M-.166,5.953,10.4-.281l-.088-.149L-.254,5.8Z" transform="translate(5.839 5.156)" fill="#fff"/>
              <path id="Line_40-2" data-name="Line 40" d="M-.163,4.046,7.373-.283l-.086-.15L-.249,3.9Z" transform="translate(6.875 5.159)" fill="#fff"/>
              <path id="Line_41-2" data-name="Line 41" d="M-.166,6.743,11.7-.281,11.612-.43-.255,6.594Z" transform="translate(16.234 23.249)" fill="#fff"/>
              <path id="Line_42-2" data-name="Line 42" d="M-.171,5.467,9.184-.278,9.093-.426-.262,5.32Z" transform="translate(18.145 24.87)" fill="#fff"/>
              <path id="Ellipse_1-2" data-name="Ellipse 1" d="M11.347,26.332c-5.684,0-10.308-5.673-10.308-12.646S5.663,1.039,11.347,1.039,21.655,6.713,21.655,13.686,17.031,26.332,11.347,26.332m0,1.039c6.267,0,11.347-6.127,11.347-13.686S17.614,0,11.347,0,0,6.127,0,13.686,5.08,27.371,11.347,27.371Z" transform="translate(33.339 23.704) rotate(150)" fill="#151515"/>
            </g>
            <ellipse id="Ellipse_2-2" data-name="Ellipse 2" cx="3.754" cy="3.754" rx="3.754" ry="3.754" transform="translate(22.388 21.99)" fill="#c1f896"/>
            <path id="Path_17-2" data-name="Path 17" d="M.974,2.064a.225.225,0,0,0,.059-.443A3.645,3.645,0,0,1-.682.581a2.953,2.953,0,0,1-.345-1.823A.225.225,0,0,0-1.218-1.5a.225.225,0,0,0-.254.191A3.36,3.36,0,0,0-1.049.842,4.036,4.036,0,0,0,.915,2.056.226.226,0,0,0,.974,2.064Z" transform="translate(28.291 24.127)" fill="#fff"/>
            <path id="Path_18-2" data-name="Path 18" d="M.225,0A.225.225,0,0,0,.166.443,3.645,3.645,0,0,1,1.881,1.483a2.953,2.953,0,0,1,.345,1.823.225.225,0,0,0,.446.063,3.36,3.36,0,0,0-.424-2.148A4.036,4.036,0,0,0,.284.008.226.226,0,0,0,.225,0Z" transform="translate(23.04 25.214)" fill="#fff"/>
            <path id="Path_19-2" data-name="Path 19" d="M3.02,6.567c-.864.9-.057,1.977-.634,3.145S-.442,10.231.077,10.9a3.754,3.754,0,0,0,6.7-2.33,3.767,3.767,0,0,0-.932-2.475C5.182,5.324,3.884,5.662,3.02,6.567Z" transform="translate(23.118 17.167)" opacity="0.146"/>
          </g>
        </g>
      </g>
      <g id="Group_2278" data-name="Group 2278" transform="translate(1096.561 201.095)">
        <path id="Path_3921" data-name="Path 3921" d="M2.465,18.689a1.8,1.8,0,0,1-1.124-.394A16.815,16.815,0,0,1-3.93,9.9c-1.24-4.962-.076-11.63-.026-11.912A1.806,1.806,0,0,1-1.862-3.472,1.806,1.806,0,0,1-.4-1.378c-.011.061-1.077,6.2-.026,10.4A13.109,13.109,0,0,0,3.592,15.47a1.806,1.806,0,0,1-1.127,3.219Z" transform="translate(71.832 15.827)" fill="#b3e689"/>
        <path id="Path_3929" data-name="Path 3929" d="M9.567,16.851a1.814,1.814,0,0,1-.363-.037A6.916,6.916,0,0,1,5,13.971,6.177,6.177,0,0,1,4.38,9.024c1.055-4.221-.015-10.34-.026-10.4A1.806,1.806,0,0,1,5.815-3.472,1.806,1.806,0,0,1,7.91-2.011c.05.281,1.215,6.95-.026,11.912a2.683,2.683,0,0,0,.171,2.145,3.4,3.4,0,0,0,1.871,1.23,1.806,1.806,0,0,1-.359,3.576Z" transform="translate(55.961 134.099)" fill="#b3e689"/>
        <path id="Path_3922" data-name="Path 3922" d="M6.651,1.858c-.482,0-.969-.015-1.455-.05A26.866,26.866,0,0,1-2.4-.031,1.805,1.805,0,0,1-3.357-2.4,1.807,1.807,0,0,1-.991-3.358,23.5,23.5,0,0,0,5.454-1.795a26.113,26.113,0,0,0,6.875-.622A1.806,1.806,0,0,1,14.51-1.088,1.806,1.806,0,0,1,13.18,1.093,30.959,30.959,0,0,1,6.651,1.858Z" transform="translate(3.5 36.911)" fill="#b3e689"/>
        <path id="Path_3923" data-name="Path 3923" d="M-5.182,13.994a1.806,1.806,0,0,1-1.641-1.049A9.688,9.688,0,0,1-7.64,8.879a16.283,16.283,0,0,1,.459-2.946,5.9,5.9,0,0,1-3.041-2.588,4.2,4.2,0,0,1-.1-3.517C-8.6-4.6-3.187-4.438-.562-3.735A1.8,1.8,0,0,1,.714-1.529,1.809,1.809,0,0,1-1.491-.244c-.045-.012-4.487-1.139-5.463,1.378-.147.379-.075.521-.045.581A3.875,3.875,0,0,0-4.711,2.974c1.829.5,1.376,2.4,1.133,3.417A14.008,14.008,0,0,0-4.03,9.025a6.227,6.227,0,0,0,.487,2.4,1.806,1.806,0,0,1-.882,2.4A1.8,1.8,0,0,1-5.182,13.994Z" transform="translate(268.054 95.961)" fill="#b3e689"/>
        <path id="Path_3923-2" data-name="Path 3923" d="M5.473,18.106a1.806,1.806,0,0,1-1.641-1.049,9.688,9.688,0,0,1-.817-4.066,16.283,16.283,0,0,1,.459-2.946A5.9,5.9,0,0,1,.433,7.456a4.2,4.2,0,0,1-.1-3.517C2.05-.486,7.468-.326,10.094.377a1.806,1.806,0,0,1-.929,3.491C9.12,3.856,4.678,2.728,3.7,5.245c-.147.379-.075.521-.045.581A3.875,3.875,0,0,0,5.944,7.086c1.829.5,1.376,2.4,1.133,3.417a14.008,14.008,0,0,0-.453,2.634,6.227,6.227,0,0,0,.487,2.4,1.807,1.807,0,0,1-1.638,2.564Z" transform="translate(27.742 127.262) rotate(97)" fill="#b3e689"/>
        <path id="Path_3930" data-name="Path 3930" transform="translate(194.748 195.833) rotate(-51)" fill="#b3e689"/>
        <path id="Path_3924" data-name="Path 3924" d="M-1.695,5.272A1.806,1.806,0,0,1-3.456,3.849,1.807,1.807,0,0,1-2.076,1.7,12.319,12.319,0,0,0,1.719.133,7.862,7.862,0,0,0,3.9-2.471a1.806,1.806,0,0,1,2.407-.853A1.806,1.806,0,0,1,7.162-.917a11.339,11.339,0,0,1-3.343,3.99A15.565,15.565,0,0,1-1.312,5.231,1.813,1.813,0,0,1-1.695,5.272Z" transform="translate(192.829 32.525)" fill="#b3e689"/>
        <path id="Path_3938" data-name="Path 3938" d="M1.8,8.773A1.806,1.806,0,0,1,1.422,5.2a12.319,12.319,0,0,0,3.8-1.568A7.862,7.862,0,0,0,7.4,1.03,1.806,1.806,0,1,1,10.66,2.583a11.339,11.339,0,0,1-3.343,3.99A15.565,15.565,0,0,1,2.186,8.732,1.813,1.813,0,0,1,1.8,8.773Z" transform="translate(218.733 171.271) rotate(-39)" fill="#b3e689"/>
        <path id="Path_3926" data-name="Path 3926" d="M1.805,7.451A1.8,1.8,0,0,1,.453,4.458,17.148,17.148,0,0,1,3.112,2.276,19.052,19.052,0,0,1,7.066.115,1.806,1.806,0,0,1,8.337,3.5,15.624,15.624,0,0,0,5.212,5.215,16.151,16.151,0,0,0,3.134,6.878,1.822,1.822,0,0,1,1.805,7.451Z" transform="matrix(-0.998, 0.07, -0.07, -0.998, 80.893, 99.282)" fill="#b3e689"/>
        <path id="Path_3939" data-name="Path 3939" d="M1.805,7.451A1.8,1.8,0,0,1,.453,4.458,17.148,17.148,0,0,1,3.112,2.276,19.052,19.052,0,0,1,7.066.115,1.806,1.806,0,0,1,8.337,3.5,15.624,15.624,0,0,0,5.212,5.215,16.151,16.151,0,0,0,3.134,6.878,1.822,1.822,0,0,1,1.805,7.451Z" transform="matrix(-0.998, 0.07, -0.07, -0.998, 271.746, 229.531)" fill="#b3e689"/>
        <path id="Path_3928" data-name="Path 3928" d="M1.805,7.451A1.8,1.8,0,0,1,.453,4.458,17.148,17.148,0,0,1,3.112,2.276,19.052,19.052,0,0,1,7.066.115,1.806,1.806,0,0,1,8.337,3.5,15.624,15.624,0,0,0,5.212,5.215,16.151,16.151,0,0,0,3.134,6.878,1.822,1.822,0,0,1,1.805,7.451Z" transform="matrix(-0.788, -0.616, 0.616, -0.788, 289.815, 18.189)" fill="#b3e689"/>
        <path id="Path_3925" data-name="Path 3925" d="M16.922,2.333a1.8,1.8,0,0,1-1.188-.445,9.475,9.475,0,0,0-1.789-1.2,8.072,8.072,0,0,0-1.92-.6,1.808,1.808,0,0,1-1.5-2.066,1.8,1.8,0,0,1,2.059-1.5,11.523,11.523,0,0,1,2.927.91,12.879,12.879,0,0,1,2.6,1.74,1.806,1.806,0,0,1-1.193,3.161Z" transform="translate(108.211 115.125)" fill="#b3e689"/>
        <path id="Path_3940" data-name="Path 3940" d="M16.922,2.333a1.8,1.8,0,0,1-1.188-.445,9.475,9.475,0,0,0-1.789-1.2,8.072,8.072,0,0,0-1.92-.6,1.808,1.808,0,0,1-1.5-2.066,1.8,1.8,0,0,1,2.059-1.5,11.523,11.523,0,0,1,2.927.91,12.879,12.879,0,0,1,2.6,1.74,1.806,1.806,0,0,1-1.193,3.161Z" transform="translate(172.241 185.961)" fill="#b3e689"/>
        <path id="Path_3932" data-name="Path 3932" d="M6.418,5.833A1.8,1.8,0,0,1,5.23,5.388a9.476,9.476,0,0,0-1.789-1.2,8.072,8.072,0,0,0-1.92-.6A1.806,1.806,0,0,1,2.081.022a11.523,11.523,0,0,1,2.927.91,12.879,12.879,0,0,1,2.6,1.74A1.806,1.806,0,0,1,6.418,5.833Z" transform="translate(268.829 51.293) rotate(-90)" fill="#b3e689"/>
        <path id="Path_3933" data-name="Path 3933" d="M7.6,6.214,3.441,4.186a8.072,8.072,0,0,0-1.92-.6A1.806,1.806,0,0,1,2.081.022a11.523,11.523,0,0,1,2.927.91L9.188,2.971Z" transform="translate(194.18 91.849) rotate(-121)" fill="#b3e689"/>
        <path id="Path_3934" data-name="Path 3934" d="M3.924,4.886a1.8,1.8,0,0,1-1.073-.354,12.754,12.754,0,0,0-1.829-1.1A1.806,1.806,0,1,1,2.59.179,16.713,16.713,0,0,1,5,1.631a1.806,1.806,0,0,1-1.08,3.254Z" transform="translate(231.035 61.887) rotate(-82)" fill="#b3e689"/>
        <path id="Path_3937" data-name="Path 3937" d="M3.924,4.886a1.8,1.8,0,0,1-1.073-.354,12.754,12.754,0,0,0-1.829-1.1A1.806,1.806,0,1,1,2.59.179,16.713,16.713,0,0,1,5,1.631a1.806,1.806,0,0,1-1.08,3.254Z" transform="translate(221.95 130.897) rotate(-45)" fill="#b3e689"/>
        <path id="Path_3935" data-name="Path 3935" d="M3.924,4.886a1.8,1.8,0,0,1-1.073-.354,12.754,12.754,0,0,0-1.829-1.1A1.806,1.806,0,1,1,2.59.179,16.713,16.713,0,0,1,5,1.631a1.806,1.806,0,0,1-1.08,3.254Z" transform="translate(159.306) rotate(1)" fill="#b3e689"/>
        <path id="Path_3927" data-name="Path 3927" d="M5.9,5.193A1.807,1.807,0,0,1,4.25,2.66h0s.486-1.244-.072-1.6C3.282.475.3.386-1.508.545A1.806,1.806,0,0,1-3.466-1.1,1.806,1.806,0,0,1-1.825-3.053C-.9-3.135,3.84-3.466,6.141-1.977,8.662-.346,8.17,2.72,7.557,4.114A1.807,1.807,0,0,1,5.9,5.193Z" transform="translate(93.433 202.182)" fill="#b3e689"/>
        <path id="Path_3931" data-name="Path 3931" d="M2.945,16.5A1.8,1.8,0,0,1,1.18,15.049a8.184,8.184,0,0,1,.756-5A19.75,19.75,0,0,1,4.42,6.855c.223-.255.486-.556.755-.871-.633.21-1.264.433-1.774.614C.691,7.558-.9,8.087-2.084,7.819l-1.13-.256-.643-1.407C-4.18,4.62-2.932,3.7-1.043,2.3-.408,1.829.295,1.31.933.766a54.355,54.355,0,0,1,5.5-3.99,1.806,1.806,0,0,1,2.489.57,1.806,1.806,0,0,1-.569,2.49C8.334-.15,6.563.966,4.769,2.322a9.206,9.206,0,0,1,3.647-.595,2.274,2.274,0,0,1,1.9,1.422c.648,1.7-.873,3.447-3.176,6.083A21.594,21.594,0,0,0,5.147,11.7a4.679,4.679,0,0,0-.421,2.66,1.814,1.814,0,0,1-1.442,2.1A1.835,1.835,0,0,1,2.945,16.5Z" transform="translate(123.66 41.298)" fill="#b3e689"/>
        <path id="Path_3936" data-name="Path 3936" d="M-6.9,10.432a1.823,1.823,0,0,1-.241-.016c-1.167-.155-5.089-.829-6.543-2.969a3.224,3.224,0,0,1-.48-2.659c.749-3,6.5-6.622,8.932-8.043a1.806,1.806,0,0,1,2.47.65,1.806,1.806,0,0,1-.65,2.47c-3.524,2.057-6.979,4.821-7.248,5.8a13.145,13.145,0,0,0,4,1.171A1.806,1.806,0,0,1-5.117,8.864,1.806,1.806,0,0,1-6.9,10.432Z" transform="translate(33.758 77.308)" fill="#b3e689"/>
      </g>
      <g id="Group_2279" data-name="Group 2279" transform="translate(1195.276 277.33)">
        <circle id="Ellipse_85" data-name="Ellipse 85" cx="43.099" cy="43.099" r="43.099" transform="translate(0 6.285)" fill="#e5f5d9"/>
        <g id="Ellipse_516" data-name="Ellipse 516" transform="translate(0 6.285)" fill="none" stroke="#83d142" stroke-width="4">
          <circle cx="43.099" cy="43.099" r="43.099" stroke="none"/>
          <circle cx="43.099" cy="43.099" r="41.099" fill="none"/>
        </g>
        <path id="Union_113" data-name="Union 113" d="M1.214,15.8l2.179-.621L4.014,13a1.674,1.674,0,0,1,3.219,0l.621,2.179,2.179.621a1.674,1.674,0,0,1,0,3.219l-2.179.621-.621,2.179a1.674,1.674,0,0,1-3.219,0l-.621-2.179-2.179-.621a1.674,1.674,0,0,1,0-3.219ZM31.946,7.234l-2.179.621-.621,2.179a1.674,1.674,0,0,1-3.219,0L25.3,7.855l-2.179-.621a1.674,1.674,0,0,1,0-3.219L25.3,3.393l.621-2.179a1.674,1.674,0,0,1,3.219,0l.621,2.179,2.179.621a1.674,1.674,0,0,1,0,3.219ZM42.086,33l1.906-.544.547-1.909a1.465,1.465,0,0,1,2.812,0l.544,1.906L49.8,33a1.465,1.465,0,0,1,0,2.812l-1.906.544-.544,1.911a1.465,1.465,0,0,1-2.812,0L44,36.357l-1.909-.547a1.465,1.465,0,0,1,0-2.812Z" transform="translate(21.894 17.302)" fill="#83d142" opacity="0"/>
        <g id="check" transform="translate(23.438 35.191)">
          <path id="Path_3726" data-name="Path 3726" d="M12.7,98.959a4.2,4.2,0,0,1-2.975-1.233l-9-8.992a2.479,2.479,0,0,1,0-3.506h0a2.479,2.479,0,0,1,3.506,0L12.7,93.693,35.09,71.3a2.479,2.479,0,0,1,3.506,0h0a2.479,2.479,0,0,1,0,3.506L15.672,97.726A4.2,4.2,0,0,1,12.7,98.959Z" transform="translate(0 -70.573)" fill="#83d142"/>
        </g>
      </g>
    </g>
  </g>
</svg>
