<svg xmlns="http://www.w3.org/2000/svg" width="32.633" height="34.55" viewBox="387.783 156.233 32.633 34.55"><path d="M397.86 190.775c-1.907 0-3.803-.502-5.438-1.493-2.756-1.671-4.436-4.563-4.604-7.934-.193-3.818 1.418-7.28 4.323-9.261 2.908-1.981 6.591-2.205 10.119-.615 2.213.997 4.896 3.062 7.46 5.338 3.766-3.32 6.163-6.122 4.489-10.252-1.928-4.76-8.77-4.845-20.688-4.585l-2.847.058a2.82 2.82 0 0 1-2.865-2.76 2.818 2.818 0 0 1 2.765-2.864l2.819-.058c12.101-.264 22.546-.493 26.029 8.096 3.103 7.654-1.815 12.887-5.59 16.248 2.62 2.617 4.63 4.866 5.086 5.382a2.808 2.808 0 0 1-.238 3.97 2.81 2.81 0 0 1-3.97-.24 126.36 126.36 0 0 0-5.116-5.38c-3 2.626-5.43 4.528-7.31 5.394a10.63 10.63 0 0 1-4.425.956Zm-.272-14.725c-.834 0-1.608.228-2.28.683-1.285.88-1.972 2.459-1.874 4.332.1 1.92 1.086 2.912 1.904 3.406 1.336.81 3.139.903 4.594.236 1.328-.61 3.632-2.494 5.54-4.146-2.046-1.785-4.023-3.284-5.525-3.96-.812-.367-1.613-.55-2.36-.55Z" fill="#1b8186" fill-rule="evenodd" data-name="Path 1499"/></svg>