<svg xmlns="http://www.w3.org/2000/svg" width="20.3" height="22.067" viewBox="402.85 578.967 20.3 22.067"><g data-name="Group 2288"><path d="M417.187 578.982c.608 0 1.102.493 1.102 1.102v3.966a1.102 1.102 0 1 1-2.204 0v-3.966c0-.609.493-1.102 1.102-1.102Z" fill="#209ca2" fill-rule="evenodd" data-name="Path 3871"/><path d="M418.728 590.76a.987.987 0 0 1-.987.987h-9.481a.987.987 0 0 1 0-1.975h9.48c.546 0 .988.442.988.987Z" fill="#209ca2" fill-rule="evenodd" data-name="Path 3872"/><path d="M409.254 578.982c.608 0 1.102.493 1.102 1.102v3.966a1.102 1.102 0 1 1-2.204 0v-3.966c0-.609.493-1.102 1.102-1.102Z" fill="#209ca2" fill-rule="evenodd" data-name="Path 3870"/><path d="M407.094 583.389a2.47 2.47 0 0 0-2.468 2.468v10.93a2.47 2.47 0 0 0 2.468 2.468h11.812a2.47 2.47 0 0 0 2.468-2.468v-10.93a2.47 2.47 0 0 0-2.468-2.468h-11.812m0-1.763h11.812a4.231 4.231 0 0 1 4.23 4.231v10.93a4.231 4.231 0 0 1-4.23 4.231h-11.812a4.231 4.231 0 0 1-4.23-4.23v-10.93a4.231 4.231 0 0 1 4.23-4.232Z" fill="#209ca2" fill-rule="evenodd" data-name="Rectangle 147"/></g></svg>