<svg xmlns="http://www.w3.org/2000/svg" width="22.65" height="22.667" viewBox="401.683 578.667 22.65 22.667"><g data-name="clock (2)"><path d="M413 584.342a.943.943 0 0 0-.943.943v4.079l-3.179 1.991a.945.945 0 0 0 1.002 1.603l3.62-2.263a.943.943 0 0 0 .443-.809v-4.6a.943.943 0 0 0-.943-.944Z" fill="#209ca2" fill-rule="evenodd" data-name="Path 3881"/><path d="M413 578.684c-6.25 0-11.316 5.067-11.316 11.316 0 6.25 5.066 11.316 11.316 11.316 6.25 0 11.316-5.066 11.316-11.316-.007-6.247-5.07-11.309-11.316-11.316Zm0 20.746a9.43 9.43 0 1 1 9.43-9.43 9.44 9.44 0 0 1-9.43 9.43Z" fill="#209ca2" fill-rule="evenodd" data-name="Path 3880"/></g></svg>