<svg xmlns="http://www.w3.org/2000/svg" width="22.583" height="16.933" viewBox="401.717 581.533 22.583 16.933"><g data-name="credit-card"><path d="M419.578 581.543h-13.155a4.704 4.704 0 0 0-4.699 4.698v7.518a4.704 4.704 0 0 0 4.699 4.698h13.155a4.704 4.704 0 0 0 4.698-4.698v-7.518a4.704 4.704 0 0 0-4.698-4.698Zm-13.155 1.88h13.155a2.819 2.819 0 0 1 2.818 2.818h-18.792a2.819 2.819 0 0 1 2.819-2.819Zm13.155 13.154h-13.155a2.819 2.819 0 0 1-2.82-2.818v-5.638h18.793v5.638a2.819 2.819 0 0 1-2.818 2.818Z" fill="#209ca2" fill-rule="evenodd" data-name="Path 3884"/><path d="M406.004 592.445a1.343 1.343 0 1 1 0 .1z" fill="#209ca2" fill-rule="evenodd" data-name="Ellipse 505"/></g></svg>