<svg xmlns="http://www.w3.org/2000/svg" width="18.25" height="21.783" viewBox="404.1 579.333 18.25 21.783"><g data-name="marker (2)"><path d="M413.23 601.1a4.774 4.774 0 0 1-3.906-1.993c-3.452-4.762-5.202-8.342-5.202-10.64a9.108 9.108 0 1 1 18.215 0c0 2.298-1.751 5.878-5.203 10.64a4.774 4.774 0 0 1-3.905 1.993Zm0-19.764a7.14 7.14 0 0 0-7.133 7.132c0 1.821 1.715 5.188 4.827 9.48a2.849 2.849 0 0 0 4.61 0c3.113-4.292 4.827-7.659 4.827-9.48a7.14 7.14 0 0 0-7.132-7.132Z" fill="#209ca2" fill-rule="evenodd" data-name="Path 3777"/><path d="M413.23 584.795a3.623 3.623 0 1 0 0 7.247 3.623 3.623 0 0 0 0-7.247Zm0 5.435a1.812 1.812 0 1 1 0-3.623 1.812 1.812 0 0 1 0 3.623Z" fill="#209ca2" fill-rule="evenodd" data-name="Path 3776"/></g></svg>