<svg xmlns="http://www.w3.org/2000/svg" width="20.5" height="22.883" viewBox="402.3 578.45 20.5 22.883"><g data-name="Group 2283"><path d="m413.6 591.494-1.485-1.77-1.395 1.171.67.8a.543.543 0 1 1-.832.697l-.67-.799-.522.438a.543.543 0 1 1-.698-.832l.522-.438-1.172-1.396-.79.664a.543.543 0 1 1-.698-.832l.79-.664-1.17-1.395-.523.438a.543.543 0 1 1-.698-.832l.522-.438-.67-.8a.543.543 0 0 1 .831-.698l.671.8 1.396-1.172-1.485-1.77a.543.543 0 1 1 .832-.698l1.485 1.77 1.395-1.17-.67-.8a.543.543 0 0 1 .832-.698l.67.799.522-.438a.543.543 0 0 1 .698.832l-.521.438 1.17 1.396.791-.664a.543.543 0 1 1 .698.832l-.79.664 1.171 1.395.522-.437a.543.543 0 0 1 .698.832l-.522.437.67.8a.543.543 0 1 1-.831.698l-.67-.8-1.397 1.172 1.486 1.77a.543.543 0 1 1-.833.698Zm.045-4.471-1.171-1.396-1.396 1.171 1.171 1.396 1.396-1.171Zm-2.228 1.869-1.17-1.396-1.397 1.171 1.172 1.396 1.395-1.171Zm.359-4.097-1.171-1.396-1.396 1.171 1.171 1.396 1.396-1.171Zm-2.228 1.87-1.171-1.397-1.396 1.172 1.171 1.395 1.396-1.17Z" fill="#209ca2" fill-rule="evenodd" data-name="Union 81"/><path d="M421.67 601.111a.905.905 0 0 1-1.276-.111l-3.86-4.6c-.366-.19-.91-.45-1.549-.683a36.054 36.054 0 0 0-2.415-.756c-2.696.285-5.73-.962-7.873-3.517-3.15-3.753-3.187-8.905-.086-11.508 3.102-2.603 8.17-1.67 11.318 2.082 2.195 2.616 2.879 5.91 2.042 8.549.06.6.17 1.576.312 2.383.108.612.253 1.152.372 1.542l3.923 4.675a.905.905 0 0 1-.111 1.275l-.798.67Zm-3.973-5.883a14.458 14.458 0 0 1-.663-2.794 6.137 6.137 0 0 1-2.37 1.954 14.464 14.464 0 0 1 2.667 1.148l.366-.308Zm-11.926-4.686c2.647 3.154 6.838 4.01 9.342 1.91 2.504-2.102 2.388-6.378-.258-9.532-2.647-3.154-6.838-4.01-9.342-1.91-2.504 2.102-2.388 6.378.258 9.532Z" fill="#209ca2" fill-rule="evenodd" data-name="Union 79"/></g></svg>