<svg xmlns="http://www.w3.org/2000/svg" xmlns:xlink="http://www.w3.org/1999/xlink" width="189.067" height="195.15" viewBox="0 0 189.067 195.15">
  <defs>
    <filter id="Union_110" x="0" y="0" width="189.067" height="195.15" filterUnits="userSpaceOnUse">
      <feOffset dy="20" input="SourceAlpha"/>
      <feGaussianBlur stdDeviation="20" result="blur"/>
      <feFlood flood-color="#414d5c" flood-opacity="0.161"/>
      <feComposite operator="in" in2="blur"/>
      <feComposite in="SourceGraphic"/>
    </filter>
  </defs>
  <g id="Group_2808" data-name="Group 2808" transform="translate(-904.344 -118.961)">
    <g id="Group_2172" data-name="Group 2172" transform="translate(964.344 158.961)">
      <g transform="matrix(1, 0, 0, 1, -60, -40)" filter="url(#Union_110)">
        <path id="Union_110-2" data-name="Union 110" d="M22.524,70.3,10.173,58.915a.986.986,0,0,1-.08-.085,34.3,34.3,0,0,1,0-48.6c.106-.112.217-.218.323-.329a34.412,34.412,0,0,1,48.4,48.929l-12.5,11.527A17.078,17.078,0,0,1,22.524,70.3Z" transform="translate(60 40)" fill="#fff"/>
      </g>
      <g id="user_7_" data-name="user (7)" transform="translate(20.582 14.587)">
        <path id="Path_3875" data-name="Path 3875" d="M30.9,29.5h-4.65V21.751a3.1,3.1,0,0,0-3.1-3.1h-12.4a3.1,3.1,0,0,0-3.1,3.1V29.5H3V21.751A7.76,7.76,0,0,1,10.751,14h12.4A7.76,7.76,0,0,1,30.9,21.751Z" transform="translate(-3 7.702)" fill="#10939a"/>
        <path id="Path_3876" data-name="Path 3876" d="M15.3,18.6a9.3,9.3,0,1,1,9.3-9.3A9.3,9.3,0,0,1,15.3,18.6Zm0-13.951a4.65,4.65,0,1,0,4.65,4.65A4.65,4.65,0,0,0,15.3,4.65Z" transform="translate(-1.35 0)" fill="#10939a"/>
      </g>
    </g>
  </g>
</svg>
